<svg width="272" height="280" viewBox="0 0 272 280" fill="none" xmlns="http://www.w3.org/2000/svg">
<circle cx="90" cy="143" r="90" fill="#2289FF"/>
<g filter="url(#filter0_d_768_1466)">
<circle cx="179.5" cy="187.5" r="32.5" fill="white"/>
</g>
<path d="M137.5 2.90909C137.5 4.51574 136.185 5.81818 134.562 5.81818C132.94 5.81818 131.625 4.51574 131.625 2.90909C131.625 1.30244 132.94 0 134.562 0C136.185 0 137.5 1.30244 137.5 2.90909Z" fill="#FCFCFA"/>
<path d="M137.5 20.3636C137.5 21.9703 136.185 23.2727 134.562 23.2727C132.94 23.2727 131.625 21.9703 131.625 20.3636C131.625 18.757 132.94 17.4545 134.562 17.4545C136.185 17.4545 137.5 18.757 137.5 20.3636Z" fill="#FCFCFA"/>
<path d="M137.5 37.8182C137.5 39.4248 136.185 40.7273 134.562 40.7273C132.94 40.7273 131.625 39.4248 131.625 37.8182C131.625 36.2115 132.94 34.9091 134.562 34.9091C136.185 34.9091 137.5 36.2115 137.5 37.8182Z" fill="#FCFCFA"/>
<path d="M137.5 55.2727C137.5 56.8794 136.185 58.1818 134.562 58.1818C132.94 58.1818 131.625 56.8794 131.625 55.2727C131.625 53.6661 132.94 52.3636 134.562 52.3636C136.185 52.3636 137.5 53.6661 137.5 55.2727Z" fill="#FCFCFA"/>
<path d="M137.5 72.7273C137.5 74.3339 136.185 75.6364 134.562 75.6364C132.94 75.6364 131.625 74.3339 131.625 72.7273C131.625 71.1206 132.94 69.8182 134.562 69.8182C136.185 69.8182 137.5 71.1206 137.5 72.7273Z" fill="#FCFCFA"/>
<path d="M137.5 90.1818C137.5 91.7885 136.185 93.0909 134.562 93.0909C132.94 93.0909 131.625 91.7885 131.625 90.1818C131.625 88.5752 132.94 87.2727 134.562 87.2727C136.185 87.2727 137.5 88.5752 137.5 90.1818Z" fill="#FCFCFA"/>
<path d="M137.5 107.636C137.5 109.243 136.185 110.545 134.562 110.545C132.94 110.545 131.625 109.243 131.625 107.636C131.625 106.03 132.94 104.727 134.562 104.727C136.185 104.727 137.5 106.03 137.5 107.636Z" fill="#FCFCFA"/>
<path d="M137.5 125.091C137.5 126.698 136.185 128 134.562 128C132.94 128 131.625 126.698 131.625 125.091C131.625 123.484 132.94 122.182 134.562 122.182C136.185 122.182 137.5 123.484 137.5 125.091Z" fill="#FCFCFA"/>
<path d="M172.75 2.90909C172.75 4.51574 171.435 5.81818 169.812 5.81818C168.19 5.81818 166.875 4.51574 166.875 2.90909C166.875 1.30244 168.19 0 169.812 0C171.435 0 172.75 1.30244 172.75 2.90909Z" fill="#FCFCFA"/>
<path d="M172.75 20.3636C172.75 21.9703 171.435 23.2727 169.812 23.2727C168.19 23.2727 166.875 21.9703 166.875 20.3636C166.875 18.757 168.19 17.4545 169.812 17.4545C171.435 17.4545 172.75 18.757 172.75 20.3636Z" fill="#FCFCFA"/>
<path d="M172.75 37.8182C172.75 39.4248 171.435 40.7273 169.812 40.7273C168.19 40.7273 166.875 39.4248 166.875 37.8182C166.875 36.2115 168.19 34.9091 169.812 34.9091C171.435 34.9091 172.75 36.2115 172.75 37.8182Z" fill="#FCFCFA"/>
<path d="M172.75 55.2727C172.75 56.8794 171.435 58.1818 169.812 58.1818C168.19 58.1818 166.875 56.8794 166.875 55.2727C166.875 53.6661 168.19 52.3636 169.812 52.3636C171.435 52.3636 172.75 53.6661 172.75 55.2727Z" fill="#FCFCFA"/>
<path d="M172.75 72.7273C172.75 74.3339 171.435 75.6364 169.812 75.6364C168.19 75.6364 166.875 74.3339 166.875 72.7273C166.875 71.1206 168.19 69.8182 169.812 69.8182C171.435 69.8182 172.75 71.1206 172.75 72.7273Z" fill="#FCFCFA"/>
<path d="M172.75 90.1818C172.75 91.7885 171.435 93.0909 169.812 93.0909C168.19 93.0909 166.875 91.7885 166.875 90.1818C166.875 88.5752 168.19 87.2727 169.812 87.2727C171.435 87.2727 172.75 88.5752 172.75 90.1818Z" fill="#FCFCFA"/>
<path d="M172.75 107.636C172.75 109.243 171.435 110.545 169.812 110.545C168.19 110.545 166.875 109.243 166.875 107.636C166.875 106.03 168.19 104.727 169.812 104.727C171.435 104.727 172.75 106.03 172.75 107.636Z" fill="#FCFCFA"/>
<path d="M172.75 125.091C172.75 126.698 171.435 128 169.812 128C168.19 128 166.875 126.698 166.875 125.091C166.875 123.484 168.19 122.182 169.812 122.182C171.435 122.182 172.75 123.484 172.75 125.091Z" fill="#FCFCFA"/>
<path d="M208 2.90909C208 4.51574 206.685 5.81818 205.062 5.81818C203.44 5.81818 202.125 4.51574 202.125 2.90909C202.125 1.30244 203.44 0 205.062 0C206.685 0 208 1.30244 208 2.90909Z" fill="#FCFCFA"/>
<path d="M208 20.3636C208 21.9703 206.685 23.2727 205.062 23.2727C203.44 23.2727 202.125 21.9703 202.125 20.3636C202.125 18.757 203.44 17.4545 205.062 17.4545C206.685 17.4545 208 18.757 208 20.3636Z" fill="#FCFCFA"/>
<path d="M208 37.8182C208 39.4248 206.685 40.7273 205.062 40.7273C203.44 40.7273 202.125 39.4248 202.125 37.8182C202.125 36.2115 203.44 34.9091 205.062 34.9091C206.685 34.9091 208 36.2115 208 37.8182Z" fill="#FCFCFA"/>
<path d="M208 55.2727C208 56.8794 206.685 58.1818 205.062 58.1818C203.44 58.1818 202.125 56.8794 202.125 55.2727C202.125 53.6661 203.44 52.3636 205.062 52.3636C206.685 52.3636 208 53.6661 208 55.2727Z" fill="#FCFCFA"/>
<path d="M208 72.7273C208 74.3339 206.685 75.6364 205.062 75.6364C203.44 75.6364 202.125 74.3339 202.125 72.7273C202.125 71.1206 203.44 69.8182 205.062 69.8182C206.685 69.8182 208 71.1206 208 72.7273Z" fill="#FCFCFA"/>
<path d="M208 90.1818C208 91.7885 206.685 93.0909 205.062 93.0909C203.44 93.0909 202.125 91.7885 202.125 90.1818C202.125 88.5752 203.44 87.2727 205.062 87.2727C206.685 87.2727 208 88.5752 208 90.1818Z" fill="#FCFCFA"/>
<path d="M208 107.636C208 109.243 206.685 110.545 205.062 110.545C203.44 110.545 202.125 109.243 202.125 107.636C202.125 106.03 203.44 104.727 205.062 104.727C206.685 104.727 208 106.03 208 107.636Z" fill="#FCFCFA"/>
<path d="M208 125.091C208 126.698 206.685 128 205.062 128C203.44 128 202.125 126.698 202.125 125.091C202.125 123.484 203.44 122.182 205.062 122.182C206.685 122.182 208 123.484 208 125.091Z" fill="#FCFCFA"/>
<path d="M119.875 2.90909C119.875 4.51574 118.56 5.81818 116.938 5.81818C115.315 5.81818 114 4.51574 114 2.90909C114 1.30244 115.315 0 116.938 0C118.56 0 119.875 1.30244 119.875 2.90909Z" fill="#FCFCFA"/>
<path d="M119.875 20.3636C119.875 21.9703 118.56 23.2727 116.938 23.2727C115.315 23.2727 114 21.9703 114 20.3636C114 18.757 115.315 17.4545 116.938 17.4545C118.56 17.4545 119.875 18.757 119.875 20.3636Z" fill="#FCFCFA"/>
<path d="M119.875 37.8182C119.875 39.4248 118.56 40.7273 116.938 40.7273C115.315 40.7273 114 39.4248 114 37.8182C114 36.2115 115.315 34.9091 116.938 34.9091C118.56 34.9091 119.875 36.2115 119.875 37.8182Z" fill="#FCFCFA"/>
<path d="M119.875 55.2727C119.875 56.8794 118.56 58.1818 116.938 58.1818C115.315 58.1818 114 56.8794 114 55.2727C114 53.6661 115.315 52.3636 116.938 52.3636C118.56 52.3636 119.875 53.6661 119.875 55.2727Z" fill="#FCFCFA"/>
<path d="M119.875 72.7273C119.875 74.3339 118.56 75.6364 116.938 75.6364C115.315 75.6364 114 74.3339 114 72.7273C114 71.1206 115.315 69.8182 116.938 69.8182C118.56 69.8182 119.875 71.1206 119.875 72.7273Z" fill="#FCFCFA"/>
<path d="M119.875 90.1818C119.875 91.7885 118.56 93.0909 116.938 93.0909C115.315 93.0909 114 91.7885 114 90.1818C114 88.5752 115.315 87.2727 116.938 87.2727C118.56 87.2727 119.875 88.5752 119.875 90.1818Z" fill="#FCFCFA"/>
<path d="M119.875 107.636C119.875 109.243 118.56 110.545 116.938 110.545C115.315 110.545 114 109.243 114 107.636C114 106.03 115.315 104.727 116.938 104.727C118.56 104.727 119.875 106.03 119.875 107.636Z" fill="#FCFCFA"/>
<path d="M119.875 125.091C119.875 126.698 118.56 128 116.938 128C115.315 128 114 126.698 114 125.091C114 123.484 115.315 122.182 116.938 122.182C118.56 122.182 119.875 123.484 119.875 125.091Z" fill="#FCFCFA"/>
<path d="M155.125 2.90909C155.125 4.51574 153.81 5.81818 152.188 5.81818C150.565 5.81818 149.25 4.51574 149.25 2.90909C149.25 1.30244 150.565 0 152.188 0C153.81 0 155.125 1.30244 155.125 2.90909Z" fill="#FCFCFA"/>
<path d="M155.125 20.3636C155.125 21.9703 153.81 23.2727 152.188 23.2727C150.565 23.2727 149.25 21.9703 149.25 20.3636C149.25 18.757 150.565 17.4545 152.188 17.4545C153.81 17.4545 155.125 18.757 155.125 20.3636Z" fill="#FCFCFA"/>
<path d="M155.125 37.8182C155.125 39.4248 153.81 40.7273 152.188 40.7273C150.565 40.7273 149.25 39.4248 149.25 37.8182C149.25 36.2115 150.565 34.9091 152.188 34.9091C153.81 34.9091 155.125 36.2115 155.125 37.8182Z" fill="#FCFCFA"/>
<path d="M155.125 55.2727C155.125 56.8794 153.81 58.1818 152.188 58.1818C150.565 58.1818 149.25 56.8794 149.25 55.2727C149.25 53.6661 150.565 52.3636 152.188 52.3636C153.81 52.3636 155.125 53.6661 155.125 55.2727Z" fill="#FCFCFA"/>
<path d="M155.125 72.7273C155.125 74.3339 153.81 75.6364 152.188 75.6364C150.565 75.6364 149.25 74.3339 149.25 72.7273C149.25 71.1206 150.565 69.8182 152.188 69.8182C153.81 69.8182 155.125 71.1206 155.125 72.7273Z" fill="#FCFCFA"/>
<path d="M155.125 90.1818C155.125 91.7885 153.81 93.0909 152.188 93.0909C150.565 93.0909 149.25 91.7885 149.25 90.1818C149.25 88.5752 150.565 87.2727 152.188 87.2727C153.81 87.2727 155.125 88.5752 155.125 90.1818Z" fill="#FCFCFA"/>
<path d="M155.125 107.636C155.125 109.243 153.81 110.545 152.188 110.545C150.565 110.545 149.25 109.243 149.25 107.636C149.25 106.03 150.565 104.727 152.188 104.727C153.81 104.727 155.125 106.03 155.125 107.636Z" fill="#FCFCFA"/>
<path d="M155.125 125.091C155.125 126.698 153.81 128 152.188 128C150.565 128 149.25 126.698 149.25 125.091C149.25 123.484 150.565 122.182 152.188 122.182C153.81 122.182 155.125 123.484 155.125 125.091Z" fill="#FCFCFA"/>
<path d="M190.375 2.90909C190.375 4.51574 189.06 5.81818 187.438 5.81818C185.815 5.81818 184.5 4.51574 184.5 2.90909C184.5 1.30244 185.815 0 187.438 0C189.06 0 190.375 1.30244 190.375 2.90909Z" fill="#FCFCFA"/>
<path d="M190.375 20.3636C190.375 21.9703 189.06 23.2727 187.438 23.2727C185.815 23.2727 184.5 21.9703 184.5 20.3636C184.5 18.757 185.815 17.4545 187.438 17.4545C189.06 17.4545 190.375 18.757 190.375 20.3636Z" fill="#FCFCFA"/>
<path d="M190.375 37.8182C190.375 39.4248 189.06 40.7273 187.438 40.7273C185.815 40.7273 184.5 39.4248 184.5 37.8182C184.5 36.2115 185.815 34.9091 187.438 34.9091C189.06 34.9091 190.375 36.2115 190.375 37.8182Z" fill="#FCFCFA"/>
<path d="M190.375 55.2727C190.375 56.8794 189.06 58.1818 187.438 58.1818C185.815 58.1818 184.5 56.8794 184.5 55.2727C184.5 53.6661 185.815 52.3636 187.438 52.3636C189.06 52.3636 190.375 53.6661 190.375 55.2727Z" fill="#FCFCFA"/>
<path d="M190.375 72.7273C190.375 74.3339 189.06 75.6364 187.438 75.6364C185.815 75.6364 184.5 74.3339 184.5 72.7273C184.5 71.1206 185.815 69.8182 187.438 69.8182C189.06 69.8182 190.375 71.1206 190.375 72.7273Z" fill="#FCFCFA"/>
<path d="M190.375 90.1818C190.375 91.7885 189.06 93.0909 187.438 93.0909C185.815 93.0909 184.5 91.7885 184.5 90.1818C184.5 88.5752 185.815 87.2727 187.438 87.2727C189.06 87.2727 190.375 88.5752 190.375 90.1818Z" fill="#FCFCFA"/>
<path d="M190.375 107.636C190.375 109.243 189.06 110.545 187.438 110.545C185.815 110.545 184.5 109.243 184.5 107.636C184.5 106.03 185.815 104.727 187.438 104.727C189.06 104.727 190.375 106.03 190.375 107.636Z" fill="#FCFCFA"/>
<path d="M190.375 125.091C190.375 126.698 189.06 128 187.438 128C185.815 128 184.5 126.698 184.5 125.091C184.5 123.484 185.815 122.182 187.438 122.182C189.06 122.182 190.375 123.484 190.375 125.091Z" fill="#FCFCFA"/>
<defs>
<filter id="filter0_d_768_1466" x="87" y="95" width="185" height="185" filterUnits="userSpaceOnUse" color-interpolation-filters="sRGB">
<feFlood flood-opacity="0" result="BackgroundImageFix"/>
<feColorMatrix in="SourceAlpha" type="matrix" values="0 0 0 0 0 0 0 0 0 0 0 0 0 0 0 0 0 0 127 0" result="hardAlpha"/>
<feOffset/>
<feGaussianBlur stdDeviation="30"/>
<feComposite in2="hardAlpha" operator="out"/>
<feColorMatrix type="matrix" values="0 0 0 0 0 0 0 0 0 0 0 0 0 0 0 0 0 0 0.1 0"/>
<feBlend mode="normal" in2="BackgroundImageFix" result="effect1_dropShadow_768_1466"/>
<feBlend mode="normal" in="SourceGraphic" in2="effect1_dropShadow_768_1466" result="shape"/>
</filter>
</defs>
</svg>
