<svg width="186" height="50" viewBox="0 0 186 50" fill="none" xmlns="http://www.w3.org/2000/svg">
<path d="M0 32.8271H186" stroke="white" stroke-width="2"/>
<mask id="path-2-inside-1_873_1833" fill="white">
<path d="M0.388672 47.1658V38.7346H6.51036V47.1658H5.49389V39.6675H1.41657V47.1658H0.388672ZM13.4593 40.7184C14.213 40.7184 14.8184 40.99 15.2752 41.5332C15.7402 42.0764 15.9719 42.8951 15.9719 43.9893C15.9719 45.0678 15.7402 45.8865 15.2752 46.4455C14.8184 47.0044 14.2098 47.2838 13.4478 47.2838C12.9763 47.2838 12.5839 47.1933 12.2715 47.0123C11.9672 46.8233 11.7273 46.6068 11.5519 46.3628H11.4834C11.4989 46.4967 11.5144 46.6659 11.5291 46.8706C11.5446 47.0753 11.5519 47.2524 11.5519 47.4019V49.9998H10.5469V40.8365H11.3692L11.5062 41.6985H11.5519C11.7347 41.4229 11.9745 41.1907 12.2715 41.0018C12.5684 40.8129 12.9649 40.7184 13.4593 40.7184ZM13.2765 41.5922C12.6524 41.5922 12.2111 41.7733 11.9517 42.1354C11.7004 42.4975 11.5674 43.0486 11.5519 43.7886V43.9893C11.5519 44.7687 11.6743 45.3709 11.9174 45.796C12.1687 46.2133 12.6296 46.4218 13.2994 46.4218C13.673 46.4218 13.9773 46.3156 14.213 46.103C14.457 45.8905 14.6356 45.6031 14.7498 45.241C14.8722 44.871 14.9326 44.4498 14.9326 43.9775C14.9326 43.2532 14.7955 42.6746 14.5214 42.2417C14.2555 41.8087 13.8402 41.5922 13.2765 41.5922ZM24.8371 43.9893C24.8371 45.0363 24.5785 45.8472 24.0604 46.4218C23.5506 46.9965 22.858 47.2838 21.9818 47.2838C21.4418 47.2838 20.958 47.1579 20.5313 46.906C20.1128 46.6462 19.7816 46.2723 19.5377 45.7842C19.2946 45.2882 19.1722 44.69 19.1722 43.9893C19.1722 42.9423 19.4276 42.1354 19.9374 41.5686C20.4481 41.0018 21.1407 40.7184 22.0161 40.7184C22.5724 40.7184 23.0595 40.8483 23.478 41.1081C23.9046 41.36 24.2358 41.73 24.4716 42.2181C24.7155 42.6982 24.8371 43.2887 24.8371 43.9893ZM20.2115 43.9893C20.2115 44.7372 20.3527 45.3315 20.6341 45.7724C20.9237 46.2053 21.3806 46.4218 22.0046 46.4218C22.6214 46.4218 23.075 46.2053 23.3638 45.7724C23.6534 45.3315 23.7978 44.7372 23.7978 43.9893C23.7978 43.2414 23.6534 42.655 23.3638 42.2299C23.075 41.8048 22.6181 41.5922 21.9932 41.5922C21.3691 41.5922 20.9164 41.8048 20.6341 42.2299C20.3527 42.655 20.2115 43.2414 20.2115 43.9893ZM34.939 40.8365V47.1658H34.0367V43.1273C34.0367 42.962 34.0408 42.7888 34.0481 42.6077C34.0636 42.4266 34.0783 42.2495 34.0938 42.0764H34.0596L32.0609 47.1658H31.2157L29.2741 42.0764H29.2399C29.2627 42.4306 29.2741 42.7927 29.2741 43.1627V47.1658H28.3719V40.8365H29.7081L31.6383 45.9259L33.6027 40.8365H34.939ZM38.8344 47.1658V40.8365H39.8394V43.4343H41.427C42.2191 43.4343 42.8056 43.5839 43.1858 43.883C43.5668 44.1822 43.7569 44.6309 43.7569 45.2292C43.7569 45.8196 43.5709 46.2919 43.1972 46.6462C42.8244 46.9926 42.2191 47.1658 41.3813 47.1658H38.8344ZM44.7733 47.1658V40.8365H45.7784V47.1658H44.7733ZM41.2899 46.3274C41.7239 46.3274 42.078 46.2526 42.3521 46.103C42.6262 45.9455 42.7632 45.6739 42.7632 45.2882C42.7632 44.9025 42.6376 44.6427 42.3863 44.5089C42.1351 44.3672 41.7737 44.2963 41.3013 44.2963H39.8394V46.3274H41.2899ZM57.9687 40.8365V47.1658H49.6656V40.8365H50.6707V46.2919H53.3089V40.8365H54.314V46.2919H56.9637V40.8365H57.9687ZM66.528 47.1658H65.5115V41.6985H63.707C63.6083 43.0289 63.4712 44.1034 63.2958 44.9222C63.1204 45.733 62.8887 46.3234 62.5991 46.6934C62.3095 47.0635 61.9441 47.2484 61.5027 47.2484C61.404 47.2484 61.3045 47.2406 61.2058 47.2248C61.1144 47.217 61.0385 47.1972 60.9774 47.1658V46.3864C61.023 46.4022 61.0728 46.414 61.1258 46.4218C61.1789 46.4297 61.2327 46.4336 61.2857 46.4336C61.6969 46.4336 62.024 45.981 62.2679 45.0757C62.5192 44.1704 62.7093 42.7573 62.839 40.8365H66.528V47.1658ZM72.7769 40.7184C73.3023 40.7184 73.751 40.8365 74.1246 41.0726C74.5048 41.3088 74.7944 41.6434 74.9926 42.0764C75.1982 42.5015 75.301 43.0014 75.301 43.576V44.2019H71.1095C71.1241 44.9182 71.2995 45.4654 71.6348 45.8432C71.9775 46.2133 72.4531 46.3982 73.0625 46.3982C73.4508 46.3982 73.7934 46.3628 74.0904 46.2919C74.3947 46.2133 74.7071 46.103 75.0269 45.9613V46.8706C74.7144 47.0123 74.4061 47.1146 74.1018 47.1776C73.7967 47.2484 73.4353 47.2838 73.0168 47.2838C72.4376 47.2838 71.9236 47.1618 71.4749 46.9178C71.0328 46.6738 70.6869 46.3116 70.4356 45.8314C70.1917 45.3433 70.0701 44.749 70.0701 44.0484C70.0701 43.3556 70.1803 42.7612 70.4014 42.2653C70.6298 41.7693 70.9455 41.3875 71.3493 41.1199C71.7605 40.8523 72.2361 40.7184 72.7769 40.7184ZM72.7655 41.5686C72.2858 41.5686 71.9049 41.73 71.6234 42.0527C71.3493 42.3676 71.1853 42.8085 71.1323 43.3753H74.2503C74.2421 42.8399 74.1205 42.407 73.8848 42.0764C73.6482 41.7379 73.2754 41.5686 72.7655 41.5686ZM79.8058 40.8365V43.4697H83.1293V40.8365H84.1344V47.1658H83.1293V44.3436H79.8058V47.1658H78.8007V40.8365H79.8058ZM89.0193 40.8365V43.4697H92.3428V40.8365H93.3479V47.1658H92.3428V44.3436H89.0193V47.1658H88.0143V40.8365H89.0193ZM97.2278 47.1658V40.8365H98.2328V43.4343H99.8204C100.612 43.4343 101.199 43.5839 101.579 43.883C101.96 44.1822 102.15 44.6309 102.15 45.2292C102.15 45.8196 101.964 46.2919 101.591 46.6462C101.218 46.9926 100.612 47.1658 99.7747 47.1658H97.2278ZM103.167 47.1658V40.8365H104.172V47.1658H103.167ZM99.6833 46.3274C100.117 46.3274 100.471 46.2526 100.745 46.103C101.02 45.9455 101.157 45.6739 101.157 45.2882C101.157 44.9025 101.031 44.6427 100.78 44.5089C100.528 44.3672 100.167 44.2963 99.6947 44.2963H98.2328V46.3274H99.6833ZM110.423 40.7184C110.949 40.7184 111.397 40.8365 111.771 41.0726C112.151 41.3088 112.441 41.6434 112.639 42.0764C112.844 42.5015 112.947 43.0014 112.947 43.576V44.2019H108.756C108.77 44.9182 108.946 45.4654 109.281 45.8432C109.624 46.2133 110.099 46.3982 110.709 46.3982C111.097 46.3982 111.44 46.3628 111.737 46.2919C112.041 46.2133 112.353 46.103 112.673 45.9613V46.8706C112.361 47.0123 112.052 47.1146 111.748 47.1776C111.443 47.2484 111.082 47.2838 110.663 47.2838C110.084 47.2838 109.57 47.1618 109.121 46.9178C108.679 46.6738 108.333 46.3116 108.082 45.8314C107.838 45.3433 107.716 44.749 107.716 44.0484C107.716 43.3556 107.827 42.7612 108.048 42.2653C108.276 41.7693 108.592 41.3875 108.996 41.1199C109.407 40.8523 109.882 40.7184 110.423 40.7184ZM110.412 41.5686C109.932 41.5686 109.551 41.73 109.27 42.0527C108.996 42.3676 108.832 42.8085 108.779 43.3753H111.896C111.888 42.8399 111.767 42.407 111.531 42.0764C111.294 41.7379 110.922 41.5686 110.412 41.5686ZM129.918 40.742C130.527 40.7971 131.057 40.9624 131.506 41.238C131.962 41.5135 132.317 41.8835 132.568 42.3479C132.819 42.8124 132.945 43.3635 132.945 44.0011C132.945 44.9536 132.675 45.7133 132.134 46.2801C131.601 46.8469 130.863 47.1736 129.918 47.2602V49.9998H128.936V47.2602C128.335 47.2052 127.805 47.0437 127.348 46.7761C126.892 46.5005 126.537 46.1306 126.286 45.6661C126.035 45.1938 125.909 44.6388 125.909 44.0011C125.909 43.0407 126.176 42.2771 126.709 41.7103C127.25 41.1435 128.003 40.8207 128.97 40.742V38.1914H129.918V40.742ZM128.97 41.604C128.27 41.6749 127.76 41.915 127.44 42.3243C127.12 42.7258 126.96 43.2848 126.96 44.0011C126.96 44.7175 127.12 45.2804 127.44 45.6897C127.768 46.099 128.278 46.3392 128.97 46.41V41.604ZM129.918 46.41C130.603 46.3313 131.106 46.0872 131.426 45.6779C131.745 45.2686 131.905 44.7096 131.905 44.0011C131.905 43.2926 131.742 42.7376 131.414 42.3361C131.094 41.9347 130.596 41.6945 129.918 41.6158V46.41ZM137.429 44.6978C137.429 44.7923 137.425 44.934 137.418 45.1229C137.41 45.3119 137.399 45.5008 137.383 45.6897C137.376 45.8787 137.368 46.0282 137.361 46.1384L140.638 40.8365H141.872V47.1658H140.935V43.4343C140.935 43.3084 140.935 43.1431 140.935 42.9384C140.943 42.7337 140.951 42.5329 140.958 42.3361C140.965 42.1314 140.974 41.9779 140.981 41.8756L137.726 47.1658H136.481V40.8365H137.429V44.6978ZM150.421 47.1658H149.405V41.6985H147.6C147.502 43.0289 147.365 44.1034 147.189 44.9222C147.014 45.733 146.782 46.3234 146.492 46.6934C146.203 47.0635 145.837 47.2484 145.396 47.2484C145.297 47.2484 145.198 47.2406 145.099 47.2248C145.008 47.217 144.932 47.1972 144.871 47.1658V46.3864C144.916 46.4022 144.966 46.414 145.019 46.4218C145.072 46.4297 145.126 46.4336 145.179 46.4336C145.59 46.4336 145.917 45.981 146.161 45.0757C146.413 44.1704 146.603 42.7573 146.732 40.8365H150.421V47.1658ZM157.127 43.4343C158.718 43.4343 159.514 44.0326 159.514 45.2292C159.514 45.8196 159.32 46.2919 158.932 46.6462C158.543 46.9926 157.927 47.1658 157.081 47.1658H154.306V40.8365H155.311V43.4343H157.127ZM158.509 45.2882C158.509 44.9025 158.375 44.6427 158.109 44.5089C157.85 44.3672 157.484 44.2963 157.013 44.2963H155.311V46.3274H157.036C157.462 46.3274 157.812 46.2487 158.086 46.0912C158.368 45.9337 158.509 45.6661 158.509 45.2882ZM166.686 41.7103H164.687V47.1658H163.693V41.7103H161.718V40.8365H166.686V41.7103ZM172.745 40.7184C173.499 40.7184 174.105 40.99 174.561 41.5332C175.026 42.0764 175.258 42.8951 175.258 43.9893C175.258 45.0678 175.026 45.8865 174.561 46.4455C174.105 47.0044 173.496 47.2838 172.734 47.2838C172.262 47.2838 171.87 47.1933 171.558 47.0123C171.253 46.8233 171.013 46.6068 170.838 46.3628H170.77C170.785 46.4967 170.801 46.6659 170.815 46.8706C170.831 47.0753 170.838 47.2524 170.838 47.4019V49.9998H169.833V40.8365H170.655L170.792 41.6985H170.838C171.021 41.4229 171.261 41.1907 171.558 41.0018C171.855 40.8129 172.251 40.7184 172.745 40.7184ZM172.563 41.5922C171.939 41.5922 171.497 41.7733 171.238 42.1354C170.987 42.4975 170.854 43.0486 170.838 43.7886V43.9893C170.838 44.7687 170.96 45.3709 171.204 45.796C171.455 46.2133 171.916 46.4218 172.586 46.4218C172.959 46.4218 173.263 46.3156 173.499 46.103C173.743 45.8905 173.922 45.6031 174.036 45.241C174.158 44.871 174.219 44.4498 174.219 43.9775C174.219 43.2532 174.082 42.6746 173.808 42.2417C173.542 41.8087 173.126 41.5922 172.563 41.5922ZM178.802 47.1658V40.8365H179.807V43.4343H181.394C182.186 43.4343 182.772 43.5839 183.153 43.883C183.533 44.1822 183.724 44.6309 183.724 45.2292C183.724 45.8196 183.537 46.2919 183.165 46.6462C182.791 46.9926 182.186 47.1658 181.349 47.1658H178.802ZM184.741 47.1658V40.8365H185.746V47.1658H184.741ZM181.257 46.3274C181.691 46.3274 182.045 46.2526 182.32 46.103C182.594 45.9455 182.731 45.6739 182.731 45.2882C182.731 44.9025 182.605 44.6427 182.354 44.5089C182.103 44.3672 181.74 44.2963 181.269 44.2963H179.807V46.3274H181.257Z"/>
</mask>
<path d="M0.388672 47.1658V38.7346H6.51036V47.1658H5.49389V39.6675H1.41657V47.1658H0.388672ZM13.4593 40.7184C14.213 40.7184 14.8184 40.99 15.2752 41.5332C15.7402 42.0764 15.9719 42.8951 15.9719 43.9893C15.9719 45.0678 15.7402 45.8865 15.2752 46.4455C14.8184 47.0044 14.2098 47.2838 13.4478 47.2838C12.9763 47.2838 12.5839 47.1933 12.2715 47.0123C11.9672 46.8233 11.7273 46.6068 11.5519 46.3628H11.4834C11.4989 46.4967 11.5144 46.6659 11.5291 46.8706C11.5446 47.0753 11.5519 47.2524 11.5519 47.4019V49.9998H10.5469V40.8365H11.3692L11.5062 41.6985H11.5519C11.7347 41.4229 11.9745 41.1907 12.2715 41.0018C12.5684 40.8129 12.9649 40.7184 13.4593 40.7184ZM13.2765 41.5922C12.6524 41.5922 12.2111 41.7733 11.9517 42.1354C11.7004 42.4975 11.5674 43.0486 11.5519 43.7886V43.9893C11.5519 44.7687 11.6743 45.3709 11.9174 45.796C12.1687 46.2133 12.6296 46.4218 13.2994 46.4218C13.673 46.4218 13.9773 46.3156 14.213 46.103C14.457 45.8905 14.6356 45.6031 14.7498 45.241C14.8722 44.871 14.9326 44.4498 14.9326 43.9775C14.9326 43.2532 14.7955 42.6746 14.5214 42.2417C14.2555 41.8087 13.8402 41.5922 13.2765 41.5922ZM24.8371 43.9893C24.8371 45.0363 24.5785 45.8472 24.0604 46.4218C23.5506 46.9965 22.858 47.2838 21.9818 47.2838C21.4418 47.2838 20.958 47.1579 20.5313 46.906C20.1128 46.6462 19.7816 46.2723 19.5377 45.7842C19.2946 45.2882 19.1722 44.69 19.1722 43.9893C19.1722 42.9423 19.4276 42.1354 19.9374 41.5686C20.4481 41.0018 21.1407 40.7184 22.0161 40.7184C22.5724 40.7184 23.0595 40.8483 23.478 41.1081C23.9046 41.36 24.2358 41.73 24.4716 42.2181C24.7155 42.6982 24.8371 43.2887 24.8371 43.9893ZM20.2115 43.9893C20.2115 44.7372 20.3527 45.3315 20.6341 45.7724C20.9237 46.2053 21.3806 46.4218 22.0046 46.4218C22.6214 46.4218 23.075 46.2053 23.3638 45.7724C23.6534 45.3315 23.7978 44.7372 23.7978 43.9893C23.7978 43.2414 23.6534 42.655 23.3638 42.2299C23.075 41.8048 22.6181 41.5922 21.9932 41.5922C21.3691 41.5922 20.9164 41.8048 20.6341 42.2299C20.3527 42.655 20.2115 43.2414 20.2115 43.9893ZM34.939 40.8365V47.1658H34.0367V43.1273C34.0367 42.962 34.0408 42.7888 34.0481 42.6077C34.0636 42.4266 34.0783 42.2495 34.0938 42.0764H34.0596L32.0609 47.1658H31.2157L29.2741 42.0764H29.2399C29.2627 42.4306 29.2741 42.7927 29.2741 43.1627V47.1658H28.3719V40.8365H29.7081L31.6383 45.9259L33.6027 40.8365H34.939ZM38.8344 47.1658V40.8365H39.8394V43.4343H41.427C42.2191 43.4343 42.8056 43.5839 43.1858 43.883C43.5668 44.1822 43.7569 44.6309 43.7569 45.2292C43.7569 45.8196 43.5709 46.2919 43.1972 46.6462C42.8244 46.9926 42.2191 47.1658 41.3813 47.1658H38.8344ZM44.7733 47.1658V40.8365H45.7784V47.1658H44.7733ZM41.2899 46.3274C41.7239 46.3274 42.078 46.2526 42.3521 46.103C42.6262 45.9455 42.7632 45.6739 42.7632 45.2882C42.7632 44.9025 42.6376 44.6427 42.3863 44.5089C42.1351 44.3672 41.7737 44.2963 41.3013 44.2963H39.8394V46.3274H41.2899ZM57.9687 40.8365V47.1658H49.6656V40.8365H50.6707V46.2919H53.3089V40.8365H54.314V46.2919H56.9637V40.8365H57.9687ZM66.528 47.1658H65.5115V41.6985H63.707C63.6083 43.0289 63.4712 44.1034 63.2958 44.9222C63.1204 45.733 62.8887 46.3234 62.5991 46.6934C62.3095 47.0635 61.9441 47.2484 61.5027 47.2484C61.404 47.2484 61.3045 47.2406 61.2058 47.2248C61.1144 47.217 61.0385 47.1972 60.9774 47.1658V46.3864C61.023 46.4022 61.0728 46.414 61.1258 46.4218C61.1789 46.4297 61.2327 46.4336 61.2857 46.4336C61.6969 46.4336 62.024 45.981 62.2679 45.0757C62.5192 44.1704 62.7093 42.7573 62.839 40.8365H66.528V47.1658ZM72.7769 40.7184C73.3023 40.7184 73.751 40.8365 74.1246 41.0726C74.5048 41.3088 74.7944 41.6434 74.9926 42.0764C75.1982 42.5015 75.301 43.0014 75.301 43.576V44.2019H71.1095C71.1241 44.9182 71.2995 45.4654 71.6348 45.8432C71.9775 46.2133 72.4531 46.3982 73.0625 46.3982C73.4508 46.3982 73.7934 46.3628 74.0904 46.2919C74.3947 46.2133 74.7071 46.103 75.0269 45.9613V46.8706C74.7144 47.0123 74.4061 47.1146 74.1018 47.1776C73.7967 47.2484 73.4353 47.2838 73.0168 47.2838C72.4376 47.2838 71.9236 47.1618 71.4749 46.9178C71.0328 46.6738 70.6869 46.3116 70.4356 45.8314C70.1917 45.3433 70.0701 44.749 70.0701 44.0484C70.0701 43.3556 70.1803 42.7612 70.4014 42.2653C70.6298 41.7693 70.9455 41.3875 71.3493 41.1199C71.7605 40.8523 72.2361 40.7184 72.7769 40.7184ZM72.7655 41.5686C72.2858 41.5686 71.9049 41.73 71.6234 42.0527C71.3493 42.3676 71.1853 42.8085 71.1323 43.3753H74.2503C74.2421 42.8399 74.1205 42.407 73.8848 42.0764C73.6482 41.7379 73.2754 41.5686 72.7655 41.5686ZM79.8058 40.8365V43.4697H83.1293V40.8365H84.1344V47.1658H83.1293V44.3436H79.8058V47.1658H78.8007V40.8365H79.8058ZM89.0193 40.8365V43.4697H92.3428V40.8365H93.3479V47.1658H92.3428V44.3436H89.0193V47.1658H88.0143V40.8365H89.0193ZM97.2278 47.1658V40.8365H98.2328V43.4343H99.8204C100.612 43.4343 101.199 43.5839 101.579 43.883C101.96 44.1822 102.15 44.6309 102.15 45.2292C102.15 45.8196 101.964 46.2919 101.591 46.6462C101.218 46.9926 100.612 47.1658 99.7747 47.1658H97.2278ZM103.167 47.1658V40.8365H104.172V47.1658H103.167ZM99.6833 46.3274C100.117 46.3274 100.471 46.2526 100.745 46.103C101.02 45.9455 101.157 45.6739 101.157 45.2882C101.157 44.9025 101.031 44.6427 100.78 44.5089C100.528 44.3672 100.167 44.2963 99.6947 44.2963H98.2328V46.3274H99.6833ZM110.423 40.7184C110.949 40.7184 111.397 40.8365 111.771 41.0726C112.151 41.3088 112.441 41.6434 112.639 42.0764C112.844 42.5015 112.947 43.0014 112.947 43.576V44.2019H108.756C108.77 44.9182 108.946 45.4654 109.281 45.8432C109.624 46.2133 110.099 46.3982 110.709 46.3982C111.097 46.3982 111.44 46.3628 111.737 46.2919C112.041 46.2133 112.353 46.103 112.673 45.9613V46.8706C112.361 47.0123 112.052 47.1146 111.748 47.1776C111.443 47.2484 111.082 47.2838 110.663 47.2838C110.084 47.2838 109.57 47.1618 109.121 46.9178C108.679 46.6738 108.333 46.3116 108.082 45.8314C107.838 45.3433 107.716 44.749 107.716 44.0484C107.716 43.3556 107.827 42.7612 108.048 42.2653C108.276 41.7693 108.592 41.3875 108.996 41.1199C109.407 40.8523 109.882 40.7184 110.423 40.7184ZM110.412 41.5686C109.932 41.5686 109.551 41.73 109.27 42.0527C108.996 42.3676 108.832 42.8085 108.779 43.3753H111.896C111.888 42.8399 111.767 42.407 111.531 42.0764C111.294 41.7379 110.922 41.5686 110.412 41.5686ZM129.918 40.742C130.527 40.7971 131.057 40.9624 131.506 41.238C131.962 41.5135 132.317 41.8835 132.568 42.3479C132.819 42.8124 132.945 43.3635 132.945 44.0011C132.945 44.9536 132.675 45.7133 132.134 46.2801C131.601 46.8469 130.863 47.1736 129.918 47.2602V49.9998H128.936V47.2602C128.335 47.2052 127.805 47.0437 127.348 46.7761C126.892 46.5005 126.537 46.1306 126.286 45.6661C126.035 45.1938 125.909 44.6388 125.909 44.0011C125.909 43.0407 126.176 42.2771 126.709 41.7103C127.25 41.1435 128.003 40.8207 128.97 40.742V38.1914H129.918V40.742ZM128.97 41.604C128.27 41.6749 127.76 41.915 127.44 42.3243C127.12 42.7258 126.96 43.2848 126.96 44.0011C126.96 44.7175 127.12 45.2804 127.44 45.6897C127.768 46.099 128.278 46.3392 128.97 46.41V41.604ZM129.918 46.41C130.603 46.3313 131.106 46.0872 131.426 45.6779C131.745 45.2686 131.905 44.7096 131.905 44.0011C131.905 43.2926 131.742 42.7376 131.414 42.3361C131.094 41.9347 130.596 41.6945 129.918 41.6158V46.41ZM137.429 44.6978C137.429 44.7923 137.425 44.934 137.418 45.1229C137.41 45.3119 137.399 45.5008 137.383 45.6897C137.376 45.8787 137.368 46.0282 137.361 46.1384L140.638 40.8365H141.872V47.1658H140.935V43.4343C140.935 43.3084 140.935 43.1431 140.935 42.9384C140.943 42.7337 140.951 42.5329 140.958 42.3361C140.965 42.1314 140.974 41.9779 140.981 41.8756L137.726 47.1658H136.481V40.8365H137.429V44.6978ZM150.421 47.1658H149.405V41.6985H147.6C147.502 43.0289 147.365 44.1034 147.189 44.9222C147.014 45.733 146.782 46.3234 146.492 46.6934C146.203 47.0635 145.837 47.2484 145.396 47.2484C145.297 47.2484 145.198 47.2406 145.099 47.2248C145.008 47.217 144.932 47.1972 144.871 47.1658V46.3864C144.916 46.4022 144.966 46.414 145.019 46.4218C145.072 46.4297 145.126 46.4336 145.179 46.4336C145.59 46.4336 145.917 45.981 146.161 45.0757C146.413 44.1704 146.603 42.7573 146.732 40.8365H150.421V47.1658ZM157.127 43.4343C158.718 43.4343 159.514 44.0326 159.514 45.2292C159.514 45.8196 159.32 46.2919 158.932 46.6462C158.543 46.9926 157.927 47.1658 157.081 47.1658H154.306V40.8365H155.311V43.4343H157.127ZM158.509 45.2882C158.509 44.9025 158.375 44.6427 158.109 44.5089C157.85 44.3672 157.484 44.2963 157.013 44.2963H155.311V46.3274H157.036C157.462 46.3274 157.812 46.2487 158.086 46.0912C158.368 45.9337 158.509 45.6661 158.509 45.2882ZM166.686 41.7103H164.687V47.1658H163.693V41.7103H161.718V40.8365H166.686V41.7103ZM172.745 40.7184C173.499 40.7184 174.105 40.99 174.561 41.5332C175.026 42.0764 175.258 42.8951 175.258 43.9893C175.258 45.0678 175.026 45.8865 174.561 46.4455C174.105 47.0044 173.496 47.2838 172.734 47.2838C172.262 47.2838 171.87 47.1933 171.558 47.0123C171.253 46.8233 171.013 46.6068 170.838 46.3628H170.77C170.785 46.4967 170.801 46.6659 170.815 46.8706C170.831 47.0753 170.838 47.2524 170.838 47.4019V49.9998H169.833V40.8365H170.655L170.792 41.6985H170.838C171.021 41.4229 171.261 41.1907 171.558 41.0018C171.855 40.8129 172.251 40.7184 172.745 40.7184ZM172.563 41.5922C171.939 41.5922 171.497 41.7733 171.238 42.1354C170.987 42.4975 170.854 43.0486 170.838 43.7886V43.9893C170.838 44.7687 170.96 45.3709 171.204 45.796C171.455 46.2133 171.916 46.4218 172.586 46.4218C172.959 46.4218 173.263 46.3156 173.499 46.103C173.743 45.8905 173.922 45.6031 174.036 45.241C174.158 44.871 174.219 44.4498 174.219 43.9775C174.219 43.2532 174.082 42.6746 173.808 42.2417C173.542 41.8087 173.126 41.5922 172.563 41.5922ZM178.802 47.1658V40.8365H179.807V43.4343H181.394C182.186 43.4343 182.772 43.5839 183.153 43.883C183.533 44.1822 183.724 44.6309 183.724 45.2292C183.724 45.8196 183.537 46.2919 183.165 46.6462C182.791 46.9926 182.186 47.1658 181.349 47.1658H178.802ZM184.741 47.1658V40.8365H185.746V47.1658H184.741ZM181.257 46.3274C181.691 46.3274 182.045 46.2526 182.32 46.103C182.594 45.9455 182.731 45.6739 182.731 45.2882C182.731 44.9025 182.605 44.6427 182.354 44.5089C182.103 44.3672 181.74 44.2963 181.269 44.2963H179.807V46.3274H181.257Z" fill="white" stroke="white" stroke-width="2" mask="url(#path-2-inside-1_873_1833)"/>
<path d="M110.44 21.5142H93.554V18.5677L109.94 18.5972H109.941C110.874 18.5972 111.668 18.3782 112.243 17.8617L112.244 17.8607C112.86 17.3035 113.113 16.4608 113.113 15.4555C113.113 14.4572 112.863 13.6197 112.244 13.0801C111.67 12.5436 110.875 12.3138 109.941 12.3138H99.4269C97.3355 12.3138 95.7756 11.7988 94.6806 10.8327C93.6206 9.86072 93.0547 8.41439 93.0547 6.40688C93.0547 4.39682 93.6219 2.9624 94.6803 2.01163L94.6807 2.01123C95.776 1.02493 97.3356 0.5 99.4269 0.5H115.432V3.44642L99.9271 3.417H99.9262C99.0099 3.417 98.2249 3.63715 97.6368 4.14144C97.0108 4.65696 96.7536 5.45655 96.7536 6.40688C96.7536 7.36187 97.0129 8.16515 97.6321 8.69863L97.632 8.69875L97.6418 8.70675C98.2301 9.18829 99.013 9.39676 99.9262 9.39676H110.44C112.53 9.39676 114.076 9.93081 115.15 10.9325L115.15 10.9326L115.157 10.9384C116.234 11.9084 116.812 13.3825 116.812 15.4555C116.812 17.5059 116.235 18.9835 115.153 19.9756L115.153 19.9756L115.15 19.9784C114.076 20.9801 112.53 21.5142 110.44 21.5142ZM122.726 9.2166H118.85V6.7247H122.726H123.226V6.2247V1.92713H126.484V6.2247V6.7247H126.984H132.769V9.2166H126.984H126.484V9.7166V16.5182C126.484 17.2066 126.648 17.8158 127.063 18.252C127.482 18.6929 128.075 18.8704 128.746 18.8704H133.591V21.3623H127.689C126.065 21.3623 124.972 20.948 124.299 20.2198C123.597 19.4388 123.226 18.403 123.226 17.0648V9.7166V9.2166H122.726ZM136.78 17.0648V6.7247H140.039V16.5486C140.039 17.2288 140.203 17.8316 140.62 18.2626C141.04 18.6967 141.632 18.8704 142.301 18.8704H150.171H150.671V18.3704V6.7247H154.077V23.8968C154.077 25.2367 153.705 26.2601 153.005 27.0193L153.005 27.0193L153.001 27.0236C152.328 27.7709 151.236 28.1943 149.613 28.1943H140.187V25.7024H148.556C149.227 25.7024 149.821 25.5249 150.24 25.084C150.655 24.6478 150.818 24.0386 150.818 23.3502V21.8623V21.3623H150.318H141.243C139.601 21.3623 138.501 20.9387 137.828 20.1939C137.142 19.4118 136.78 18.3839 136.78 17.0648ZM167.256 8.47713L167.259 8.47459C168.609 7.22754 170.519 6.57287 173.058 6.57287H180.4C182.045 6.57287 183.215 6.97851 183.992 7.71176L183.992 7.71186L184 7.71947C184.789 8.43125 185.215 9.47491 185.215 10.9312C185.215 12.4282 184.801 13.4636 184.053 14.1343C183.294 14.8144 182.107 15.1984 180.4 15.1984H169.298H168.677L168.81 15.8051C169.035 16.8355 169.503 17.6579 170.246 18.2161C170.984 18.7706 171.938 19.0223 173.058 19.0223H184.452V21.5142H173.058C170.518 21.5142 168.607 20.8691 167.258 19.6416C165.921 18.4067 165.217 16.5748 165.217 14.0587C165.217 11.5197 165.923 9.69021 167.256 8.47713ZM168.845 12.0776L168.677 12.7065H169.328H180.194C180.693 12.7065 181.142 12.548 181.471 12.1819C181.813 11.8242 181.957 11.3561 181.957 10.8401C181.957 10.3391 181.833 9.87134 181.497 9.53179C181.159 9.19133 180.693 9.06478 180.194 9.06478H173.058C171.979 9.06478 171.053 9.3004 170.324 9.81718C169.589 10.3376 169.104 11.1073 168.845 12.0776ZM158.319 21.3623V0.651822H161.578V21.3623H158.319Z" fill="white" stroke="white"/>
<path d="M0.361328 21.8629L9.81796 0.152344H17.072L26.5286 21.8629H21.4185L19.4214 17.2778H7.46848L5.47143 21.8629H0.361328ZM9.17186 13.3305H17.7181L13.6359 3.94789H13.2541L9.17186 13.3305ZM46.172 28.6949V6.22522H35.3057C32.6821 6.22522 30.6361 6.89323 29.1677 8.22927C27.6992 9.5653 26.965 11.4985 26.965 14.0289C26.965 16.5795 27.6992 18.5228 29.1677 19.8588C30.6361 21.1949 32.6821 21.8629 35.3057 21.8629H41.9136V28.6949H46.172ZM35.3057 9.71712H41.9136V18.371H35.3057C34.033 18.371 33.0541 18.0167 32.3688 17.3082C31.7031 16.5795 31.3703 15.4864 31.3703 14.0289C31.3703 12.5916 31.7031 11.5187 32.3688 10.8102C33.0541 10.0815 34.033 9.71712 35.3057 9.71712ZM54.223 21.8629C52.5001 21.8629 51.2372 21.4175 50.4345 20.5268C49.6513 19.6362 49.2598 18.4823 49.2598 17.0653V6.22522H53.5182V16.5491C53.5182 17.7637 54.1055 18.371 55.2803 18.371H61.3889C62.5636 18.371 63.151 17.7637 63.151 16.5491V6.22522H67.4094V17.0653C67.4094 18.4823 67.0081 19.6362 66.2053 20.5268C65.4222 21.4175 64.1691 21.8629 62.4462 21.8629H54.223ZM74.5101 21.8629C72.9242 21.8629 71.7103 21.4479 70.8684 20.6179C70.0265 19.788 69.6055 18.6038 69.6055 17.0653C69.6055 15.5471 70.0265 14.373 70.8684 13.543C71.7103 12.7131 72.9242 12.2981 74.5101 12.2981H85.7875V11.5693C85.7875 10.3345 85.2002 9.71712 84.0254 9.71712H71.5732V6.22522H85.1414C86.9231 6.22522 88.186 6.65032 88.93 7.50052C89.674 8.33048 90.046 9.50457 90.046 11.0228V21.8629H74.5101ZM75.2736 18.371H85.7875V15.79H75.2736C74.9016 15.79 74.608 15.9115 74.3926 16.1544C74.1968 16.377 74.0989 16.6807 74.0989 17.0653C74.0989 17.4499 74.1968 17.7637 74.3926 18.0066C74.608 18.2495 74.9016 18.371 75.2736 18.371Z" fill="white"/>
</svg>
