<svg width="96" height="97" viewBox="0 0 96 97" fill="none" xmlns="http://www.w3.org/2000/svg">
<path d="M46.2959 1.77362C47.0766 0.502901 48.9234 0.502905 49.7041 1.77362L54.0097 8.7817C54.629 9.78964 55.9831 10.0428 56.9246 9.32658L63.4711 4.34713C64.6582 3.44425 66.3802 4.11136 66.6491 5.5783L68.1324 13.6685C68.3458 14.8321 69.517 15.5573 70.6536 15.2296L78.5569 12.9513C79.9899 12.5381 81.3547 13.7823 81.0755 15.2473L79.5361 23.3271C79.3147 24.4891 80.1449 25.5884 81.3232 25.6935L89.5157 26.424C91.0012 26.5564 91.8244 28.2095 91.0349 29.4748L86.6807 36.4529C86.0545 37.4565 86.4315 38.7814 87.4922 39.305L94.8677 42.9457C96.205 43.6058 96.3754 45.4447 95.1822 46.3393L88.6012 51.2732C87.6547 51.9829 87.5276 53.3545 88.3276 54.2259L93.8899 60.2851C94.8984 61.3837 94.3931 63.16 92.9572 63.5631L85.0383 65.7866C83.8994 66.1064 83.2854 67.3395 83.7166 68.4411L86.7144 76.1004C87.258 77.4892 86.1451 78.9629 84.6605 78.8201L76.4732 78.0328C75.2957 77.9196 74.2777 78.8476 74.2818 80.0306L74.3103 88.2556C74.3155 89.747 72.7454 90.7192 71.4127 90.0498L64.0626 86.358C63.0055 85.827 61.721 86.3247 61.2975 87.4292L58.3529 95.1091C57.819 96.5017 56.0037 96.841 55.0028 95.7354L49.4827 89.6378C48.6888 88.7608 47.3112 88.7608 46.5173 89.6378L40.9972 95.7354C39.9963 96.841 38.181 96.5017 37.6471 95.1091L34.7025 87.4292C34.279 86.3247 32.9945 85.827 31.9374 86.358L24.5873 90.0498C23.2546 90.7192 21.6845 89.747 21.6897 88.2556L21.7182 80.0306C21.7223 78.8476 20.7043 77.9196 19.5268 78.0328L11.3395 78.8201C9.85494 78.9629 8.74203 77.4892 9.2856 76.1004L12.2834 68.4411C12.7146 67.3395 12.1006 66.1064 10.9616 65.7866L3.0428 63.5631C1.60694 63.16 1.10156 61.3837 2.11012 60.2851L7.67236 54.2259C8.47236 53.3545 8.34526 51.9829 7.39875 51.2732L0.817849 46.3393C-0.375415 45.4447 -0.205018 43.6058 1.13232 42.9457L8.50777 39.305C9.56855 38.7814 9.94552 37.4565 9.31928 36.4529L4.96511 29.4748C4.1756 28.2095 4.99876 26.5564 6.48425 26.424L14.6768 25.6935C15.8551 25.5884 16.6853 24.4891 16.4639 23.327L14.9245 15.2473C14.6453 13.7823 16.0101 12.5381 17.4431 12.9513L25.3464 15.2296C26.483 15.5573 27.6542 14.8321 27.8676 13.6685L29.3509 5.5783C29.6198 4.11136 31.3418 3.44425 32.5289 4.34713L39.0754 9.32658C40.0169 10.0428 41.371 9.78964 41.9903 8.7817L46.2959 1.77362Z" fill="#2289FF"/>
</svg>
