<svg width="831" height="353" viewBox="0 0 831 353" fill="none" xmlns="http://www.w3.org/2000/svg">
<path fill-rule="evenodd" clip-rule="evenodd" d="M52.2813 237.6H173.071V144.54H216.781V237.6H256.731V278.49H216.781V341H173.071V278.49H5.28125V237.6L123.251 12H170.251L52.2813 237.6ZM168.071 283.49H0.28125V236.372L120.223 7.00003H178.508L60.5382 232.6H168.071V139.54H221.781V232.6H261.731V283.49H221.781V346H168.071V283.49ZM472.075 268.231L472.089 268.21C486.058 247.108 493.348 216.733 493.348 176.5C493.348 136.267 486.058 105.892 472.089 84.79L472.066 84.7562L472.044 84.722C458.544 63.5908 439.604 53.19 414.688 53.19C389.74 53.19 370.801 63.4628 357.314 84.2787C343.64 105.385 336.498 135.929 336.498 176.5C336.498 216.748 343.637 247.14 357.314 268.251C370.801 289.067 389.74 299.34 414.688 299.34C439.636 299.34 458.575 289.067 472.062 268.251L472.075 268.231ZM512.295 303.475C489.356 335.911 456.606 352.11 414.688 352.11C372.768 352.11 340.016 335.91 317.078 303.47C294.06 271.048 282.788 228.577 282.788 176.5C282.788 124.423 294.06 81.952 317.078 49.5302C340.016 17.0902 372.768 0.890015 414.688 0.890015C456.606 0.890015 489.356 17.0886 512.295 49.5254C535.315 81.9479 546.588 124.421 546.588 176.5C546.588 228.579 535.315 271.052 512.295 303.475ZM321.158 52.42C298.911 83.7534 287.788 125.113 287.788 176.5C287.788 227.887 298.911 269.247 321.158 300.58C343.091 331.6 374.268 347.11 414.688 347.11C455.108 347.11 486.285 331.6 508.218 300.58C530.465 269.247 541.588 227.887 541.588 176.5C541.588 125.113 530.465 83.7534 508.218 52.42C486.285 21.4 455.108 5.89001 414.688 5.89001C374.268 5.89001 343.091 21.4 321.158 52.42ZM620.963 237.6H741.753V144.54H785.463V237.6H825.413V278.49H785.463V341H741.753V278.49H573.963V237.6L691.933 12H738.933L620.963 237.6ZM736.753 283.49H568.963V236.372L688.905 7.00003H747.19L629.22 232.6H736.753V139.54H790.463V232.6H830.413V283.49H790.463V346H736.753V283.49ZM353.118 270.97C338.705 248.723 331.498 217.233 331.498 176.5C331.498 135.453 338.705 103.807 353.118 81.56C367.531 59.3134 388.055 48.19 414.688 48.19C441.321 48.19 461.845 59.47 476.258 82.03C490.985 104.277 498.348 135.767 498.348 176.5C498.348 217.233 490.985 248.723 476.258 270.97C461.845 293.217 441.321 304.34 414.688 304.34C388.055 304.34 367.531 293.217 353.118 270.97Z" fill="#F0F3F7"/>
<path d="M7.19922 148H28.0792C33.4126 148 37.9459 149.813 41.6792 153.44C45.3592 157.067 47.1992 161.52 47.1992 166.8C47.1992 172.08 45.3592 176.533 41.6792 180.16C37.9459 183.787 33.4126 185.6 28.0792 185.6H18.2392V204H7.19922V148ZM18.2392 175.28H28.0792C30.4259 175.28 32.3726 174.48 33.9192 172.88C35.4659 171.227 36.2392 169.2 36.2392 166.8C36.2392 164.347 35.4659 162.32 33.9192 160.72C32.3726 159.12 30.4259 158.32 28.0792 158.32H18.2392V175.28Z" fill="#DFE5EE"/>
<path d="M94.2836 204H82.2836L78.9236 193.92H56.6036L53.2436 204H41.3236L60.9236 148H74.6036L94.2836 204ZM67.8036 160.72L60.1236 183.6H75.4836L67.8036 160.72Z" fill="#DFE5EE"/>
<path d="M122.17 173.92H150.25V178.24C150.25 186.24 147.69 192.72 142.57 197.68C137.45 202.64 130.837 205.12 122.73 205.12C114.09 205.12 106.917 202.32 101.21 196.72C95.5565 191.067 92.7298 184.187 92.7298 176.08C92.7298 167.92 95.5298 161.013 101.13 155.36C106.783 149.707 113.77 146.88 122.09 146.88C127.263 146.88 132.01 148.053 136.33 150.4C140.65 152.747 144.037 155.92 146.49 159.92L137.05 165.36C135.717 163.067 133.69 161.2 130.97 159.76C128.25 158.32 125.263 157.6 122.01 157.6C116.623 157.6 112.223 159.36 108.81 162.88C105.397 166.293 103.69 170.693 103.69 176.08C103.69 181.36 105.423 185.733 108.89 189.2C112.357 192.613 116.997 194.32 122.81 194.32C127.023 194.32 130.543 193.387 133.37 191.52C136.197 189.653 138.117 187.04 139.13 183.68H122.17V173.92Z" fill="#DFE5EE"/>
<path d="M166.742 180.88V193.44H190.342V204H155.702V148H189.942V158.56H166.742V170.48H187.942V180.88H166.742Z" fill="#DFE5EE"/>
<path d="M245.724 182.16V148H256.764V204H248.364L224.364 169.76V204H213.324V148H221.724L245.724 182.16Z" fill="#DFE5EE"/>
<path d="M311.872 196.72C306.219 202.32 299.339 205.12 291.232 205.12C283.126 205.12 276.246 202.32 270.592 196.72C264.992 191.013 262.192 184.107 262.192 176C262.192 167.84 264.992 160.96 270.592 155.36C276.246 149.707 283.126 146.88 291.232 146.88C299.339 146.88 306.219 149.707 311.872 155.36C317.526 160.96 320.352 167.84 320.352 176C320.352 184.16 317.526 191.067 311.872 196.72ZM278.352 189.2C281.766 192.613 286.059 194.32 291.232 194.32C296.406 194.32 300.699 192.613 304.112 189.2C307.579 185.733 309.312 181.333 309.312 176C309.312 170.667 307.579 166.267 304.112 162.8C300.646 159.333 296.352 157.6 291.232 157.6C286.112 157.6 281.819 159.333 278.352 162.8C274.886 166.267 273.152 170.667 273.152 176C273.152 181.333 274.886 185.733 278.352 189.2Z" fill="#DFE5EE"/>
<path d="M318.349 148H359.549V158.56H344.429V204H333.389V158.56H318.349V148Z" fill="#DFE5EE"/>
<path d="M414.352 148V158.56H391.952V171.84H413.712V182.4H391.952V204H380.912V148H414.352Z" fill="#DFE5EE"/>
<path d="M467.116 196.72C461.463 202.32 454.583 205.12 446.476 205.12C438.369 205.12 431.489 202.32 425.836 196.72C420.236 191.013 417.436 184.107 417.436 176C417.436 167.84 420.236 160.96 425.836 155.36C431.489 149.707 438.369 146.88 446.476 146.88C454.583 146.88 461.463 149.707 467.116 155.36C472.769 160.96 475.596 167.84 475.596 176C475.596 184.16 472.769 191.067 467.116 196.72ZM433.596 189.2C437.009 192.613 441.303 194.32 446.476 194.32C451.649 194.32 455.943 192.613 459.356 189.2C462.823 185.733 464.556 181.333 464.556 176C464.556 170.667 462.823 166.267 459.356 162.8C455.889 159.333 451.596 157.6 446.476 157.6C441.356 157.6 437.063 159.333 433.596 162.8C430.129 166.267 428.396 170.667 428.396 176C428.396 181.333 430.129 185.733 433.596 189.2Z" fill="#DFE5EE"/>
<path d="M501.445 205.12C495.205 205.12 490.085 203.36 486.085 199.84C482.085 196.32 480.085 191.6 480.085 185.68V148H491.045V184.8C491.045 187.787 491.898 190.133 493.605 191.84C495.365 193.493 497.978 194.32 501.445 194.32C504.911 194.32 507.498 193.493 509.205 191.84C510.965 190.133 511.845 187.787 511.845 184.8V148H522.885V185.68C522.885 191.6 520.885 196.32 516.885 199.84C512.885 203.36 507.738 205.12 501.445 205.12Z" fill="#DFE5EE"/>
<path d="M562.83 182.16V148H573.87V204H565.47L541.47 169.76V204H530.43V148H538.83L562.83 182.16Z" fill="#DFE5EE"/>
<path d="M581.859 148H604.099C611.779 148 618.179 150.693 623.299 156.08C628.472 161.413 631.059 168.053 631.059 176C631.059 183.947 628.472 190.587 623.299 195.92C618.179 201.307 611.779 204 604.099 204H581.859V148ZM592.899 193.44H604.099C608.952 193.44 612.899 191.84 615.939 188.64C618.979 185.333 620.499 181.12 620.499 176C620.499 170.827 618.979 166.64 615.939 163.44C612.899 160.187 608.952 158.56 604.099 158.56H592.899V193.44Z" fill="#DFE5EE"/>
</svg>
