<svg width="94" height="128" viewBox="0 0 94 128" fill="none" xmlns="http://www.w3.org/2000/svg">
<path d="M23.5 2.90909C23.5 4.51574 22.1848 5.81818 20.5625 5.81818C18.9402 5.81818 17.625 4.51574 17.625 2.90909C17.625 1.30244 18.9402 0 20.5625 0C22.1848 0 23.5 1.30244 23.5 2.90909Z" fill="#F2F2F0"/>
<path d="M23.5 20.3636C23.5 21.9703 22.1848 23.2727 20.5625 23.2727C18.9402 23.2727 17.625 21.9703 17.625 20.3636C17.625 18.757 18.9402 17.4545 20.5625 17.4545C22.1848 17.4545 23.5 18.757 23.5 20.3636Z" fill="#F2F2F0"/>
<path d="M23.5 37.8182C23.5 39.4248 22.1848 40.7273 20.5625 40.7273C18.9402 40.7273 17.625 39.4248 17.625 37.8182C17.625 36.2115 18.9402 34.9091 20.5625 34.9091C22.1848 34.9091 23.5 36.2115 23.5 37.8182Z" fill="#F2F2F0"/>
<path d="M23.5 55.2727C23.5 56.8794 22.1848 58.1818 20.5625 58.1818C18.9402 58.1818 17.625 56.8794 17.625 55.2727C17.625 53.6661 18.9402 52.3636 20.5625 52.3636C22.1848 52.3636 23.5 53.6661 23.5 55.2727Z" fill="#F2F2F0"/>
<path d="M23.5 72.7273C23.5 74.3339 22.1848 75.6364 20.5625 75.6364C18.9402 75.6364 17.625 74.3339 17.625 72.7273C17.625 71.1206 18.9402 69.8182 20.5625 69.8182C22.1848 69.8182 23.5 71.1206 23.5 72.7273Z" fill="#F2F2F0"/>
<path d="M23.5 90.1818C23.5 91.7885 22.1848 93.0909 20.5625 93.0909C18.9402 93.0909 17.625 91.7885 17.625 90.1818C17.625 88.5752 18.9402 87.2727 20.5625 87.2727C22.1848 87.2727 23.5 88.5752 23.5 90.1818Z" fill="#F2F2F0"/>
<path d="M23.5 107.636C23.5 109.243 22.1848 110.545 20.5625 110.545C18.9402 110.545 17.625 109.243 17.625 107.636C17.625 106.03 18.9402 104.727 20.5625 104.727C22.1848 104.727 23.5 106.03 23.5 107.636Z" fill="#F2F2F0"/>
<path d="M23.5 125.091C23.5 126.698 22.1848 128 20.5625 128C18.9402 128 17.625 126.698 17.625 125.091C17.625 123.484 18.9402 122.182 20.5625 122.182C22.1848 122.182 23.5 123.484 23.5 125.091Z" fill="#F2F2F0"/>
<path d="M58.75 2.90909C58.75 4.51574 57.4348 5.81818 55.8125 5.81818C54.1902 5.81818 52.875 4.51574 52.875 2.90909C52.875 1.30244 54.1902 0 55.8125 0C57.4348 0 58.75 1.30244 58.75 2.90909Z" fill="#F2F2F0"/>
<path d="M58.75 20.3636C58.75 21.9703 57.4348 23.2727 55.8125 23.2727C54.1902 23.2727 52.875 21.9703 52.875 20.3636C52.875 18.757 54.1902 17.4545 55.8125 17.4545C57.4348 17.4545 58.75 18.757 58.75 20.3636Z" fill="#F2F2F0"/>
<path d="M58.75 37.8182C58.75 39.4248 57.4348 40.7273 55.8125 40.7273C54.1902 40.7273 52.875 39.4248 52.875 37.8182C52.875 36.2115 54.1902 34.9091 55.8125 34.9091C57.4348 34.9091 58.75 36.2115 58.75 37.8182Z" fill="#F2F2F0"/>
<path d="M58.75 55.2727C58.75 56.8794 57.4348 58.1818 55.8125 58.1818C54.1902 58.1818 52.875 56.8794 52.875 55.2727C52.875 53.6661 54.1902 52.3636 55.8125 52.3636C57.4348 52.3636 58.75 53.6661 58.75 55.2727Z" fill="#F2F2F0"/>
<path d="M58.75 72.7273C58.75 74.3339 57.4348 75.6364 55.8125 75.6364C54.1902 75.6364 52.875 74.3339 52.875 72.7273C52.875 71.1206 54.1902 69.8182 55.8125 69.8182C57.4348 69.8182 58.75 71.1206 58.75 72.7273Z" fill="#F2F2F0"/>
<path d="M58.75 90.1818C58.75 91.7885 57.4348 93.0909 55.8125 93.0909C54.1902 93.0909 52.875 91.7885 52.875 90.1818C52.875 88.5752 54.1902 87.2727 55.8125 87.2727C57.4348 87.2727 58.75 88.5752 58.75 90.1818Z" fill="#F2F2F0"/>
<path d="M58.75 107.636C58.75 109.243 57.4348 110.545 55.8125 110.545C54.1902 110.545 52.875 109.243 52.875 107.636C52.875 106.03 54.1902 104.727 55.8125 104.727C57.4348 104.727 58.75 106.03 58.75 107.636Z" fill="#F2F2F0"/>
<path d="M58.75 125.091C58.75 126.698 57.4348 128 55.8125 128C54.1902 128 52.875 126.698 52.875 125.091C52.875 123.484 54.1902 122.182 55.8125 122.182C57.4348 122.182 58.75 123.484 58.75 125.091Z" fill="#F2F2F0"/>
<path d="M94 2.90909C94 4.51574 92.6848 5.81818 91.0625 5.81818C89.4402 5.81818 88.125 4.51574 88.125 2.90909C88.125 1.30244 89.4402 0 91.0625 0C92.6848 0 94 1.30244 94 2.90909Z" fill="#F2F2F0"/>
<path d="M94 20.3636C94 21.9703 92.6848 23.2727 91.0625 23.2727C89.4402 23.2727 88.125 21.9703 88.125 20.3636C88.125 18.757 89.4402 17.4545 91.0625 17.4545C92.6848 17.4545 94 18.757 94 20.3636Z" fill="#F2F2F0"/>
<path d="M94 37.8182C94 39.4248 92.6848 40.7273 91.0625 40.7273C89.4402 40.7273 88.125 39.4248 88.125 37.8182C88.125 36.2115 89.4402 34.9091 91.0625 34.9091C92.6848 34.9091 94 36.2115 94 37.8182Z" fill="#F2F2F0"/>
<path d="M94 55.2727C94 56.8794 92.6848 58.1818 91.0625 58.1818C89.4402 58.1818 88.125 56.8794 88.125 55.2727C88.125 53.6661 89.4402 52.3636 91.0625 52.3636C92.6848 52.3636 94 53.6661 94 55.2727Z" fill="#F2F2F0"/>
<path d="M94 72.7273C94 74.3339 92.6848 75.6364 91.0625 75.6364C89.4402 75.6364 88.125 74.3339 88.125 72.7273C88.125 71.1206 89.4402 69.8182 91.0625 69.8182C92.6848 69.8182 94 71.1206 94 72.7273Z" fill="#F2F2F0"/>
<path d="M94 90.1818C94 91.7885 92.6848 93.0909 91.0625 93.0909C89.4402 93.0909 88.125 91.7885 88.125 90.1818C88.125 88.5752 89.4402 87.2727 91.0625 87.2727C92.6848 87.2727 94 88.5752 94 90.1818Z" fill="#F2F2F0"/>
<path d="M94 107.636C94 109.243 92.6848 110.545 91.0625 110.545C89.4402 110.545 88.125 109.243 88.125 107.636C88.125 106.03 89.4402 104.727 91.0625 104.727C92.6848 104.727 94 106.03 94 107.636Z" fill="#F2F2F0"/>
<path d="M94 125.091C94 126.698 92.6848 128 91.0625 128C89.4402 128 88.125 126.698 88.125 125.091C88.125 123.484 89.4402 122.182 91.0625 122.182C92.6848 122.182 94 123.484 94 125.091Z" fill="#F2F2F0"/>
<path d="M5.875 2.90909C5.875 4.51574 4.55984 5.81818 2.9375 5.81818C1.31516 5.81818 0 4.51574 0 2.90909C0 1.30244 1.31516 0 2.9375 0C4.55984 0 5.875 1.30244 5.875 2.90909Z" fill="#F2F2F0"/>
<path d="M5.875 20.3636C5.875 21.9703 4.55984 23.2727 2.9375 23.2727C1.31516 23.2727 0 21.9703 0 20.3636C0 18.757 1.31516 17.4545 2.9375 17.4545C4.55984 17.4545 5.875 18.757 5.875 20.3636Z" fill="#F2F2F0"/>
<path d="M5.875 37.8182C5.875 39.4248 4.55984 40.7273 2.9375 40.7273C1.31516 40.7273 0 39.4248 0 37.8182C0 36.2115 1.31516 34.9091 2.9375 34.9091C4.55984 34.9091 5.875 36.2115 5.875 37.8182Z" fill="#F2F2F0"/>
<path d="M5.875 55.2727C5.875 56.8794 4.55984 58.1818 2.9375 58.1818C1.31516 58.1818 0 56.8794 0 55.2727C0 53.6661 1.31516 52.3636 2.9375 52.3636C4.55984 52.3636 5.875 53.6661 5.875 55.2727Z" fill="#F2F2F0"/>
<path d="M5.875 72.7273C5.875 74.3339 4.55984 75.6364 2.9375 75.6364C1.31516 75.6364 0 74.3339 0 72.7273C0 71.1206 1.31516 69.8182 2.9375 69.8182C4.55984 69.8182 5.875 71.1206 5.875 72.7273Z" fill="#F2F2F0"/>
<path d="M5.875 90.1818C5.875 91.7885 4.55984 93.0909 2.9375 93.0909C1.31516 93.0909 0 91.7885 0 90.1818C0 88.5752 1.31516 87.2727 2.9375 87.2727C4.55984 87.2727 5.875 88.5752 5.875 90.1818Z" fill="#F2F2F0"/>
<path d="M5.875 107.636C5.875 109.243 4.55984 110.545 2.9375 110.545C1.31516 110.545 0 109.243 0 107.636C0 106.03 1.31516 104.727 2.9375 104.727C4.55984 104.727 5.875 106.03 5.875 107.636Z" fill="#F2F2F0"/>
<path d="M5.875 125.091C5.875 126.698 4.55984 128 2.9375 128C1.31516 128 0 126.698 0 125.091C0 123.484 1.31516 122.182 2.9375 122.182C4.55984 122.182 5.875 123.484 5.875 125.091Z" fill="#F2F2F0"/>
<path d="M41.125 2.90909C41.125 4.51574 39.8098 5.81818 38.1875 5.81818C36.5652 5.81818 35.25 4.51574 35.25 2.90909C35.25 1.30244 36.5652 0 38.1875 0C39.8098 0 41.125 1.30244 41.125 2.90909Z" fill="#F2F2F0"/>
<path d="M41.125 20.3636C41.125 21.9703 39.8098 23.2727 38.1875 23.2727C36.5652 23.2727 35.25 21.9703 35.25 20.3636C35.25 18.757 36.5652 17.4545 38.1875 17.4545C39.8098 17.4545 41.125 18.757 41.125 20.3636Z" fill="#F2F2F0"/>
<path d="M41.125 37.8182C41.125 39.4248 39.8098 40.7273 38.1875 40.7273C36.5652 40.7273 35.25 39.4248 35.25 37.8182C35.25 36.2115 36.5652 34.9091 38.1875 34.9091C39.8098 34.9091 41.125 36.2115 41.125 37.8182Z" fill="#F2F2F0"/>
<path d="M41.125 55.2727C41.125 56.8794 39.8098 58.1818 38.1875 58.1818C36.5652 58.1818 35.25 56.8794 35.25 55.2727C35.25 53.6661 36.5652 52.3636 38.1875 52.3636C39.8098 52.3636 41.125 53.6661 41.125 55.2727Z" fill="#F2F2F0"/>
<path d="M41.125 72.7273C41.125 74.3339 39.8098 75.6364 38.1875 75.6364C36.5652 75.6364 35.25 74.3339 35.25 72.7273C35.25 71.1206 36.5652 69.8182 38.1875 69.8182C39.8098 69.8182 41.125 71.1206 41.125 72.7273Z" fill="#F2F2F0"/>
<path d="M41.125 90.1818C41.125 91.7885 39.8098 93.0909 38.1875 93.0909C36.5652 93.0909 35.25 91.7885 35.25 90.1818C35.25 88.5752 36.5652 87.2727 38.1875 87.2727C39.8098 87.2727 41.125 88.5752 41.125 90.1818Z" fill="#F2F2F0"/>
<path d="M41.125 107.636C41.125 109.243 39.8098 110.545 38.1875 110.545C36.5652 110.545 35.25 109.243 35.25 107.636C35.25 106.03 36.5652 104.727 38.1875 104.727C39.8098 104.727 41.125 106.03 41.125 107.636Z" fill="#F2F2F0"/>
<path d="M41.125 125.091C41.125 126.698 39.8098 128 38.1875 128C36.5652 128 35.25 126.698 35.25 125.091C35.25 123.484 36.5652 122.182 38.1875 122.182C39.8098 122.182 41.125 123.484 41.125 125.091Z" fill="#F2F2F0"/>
<path d="M76.375 2.90909C76.375 4.51574 75.0598 5.81818 73.4375 5.81818C71.8152 5.81818 70.5 4.51574 70.5 2.90909C70.5 1.30244 71.8152 0 73.4375 0C75.0598 0 76.375 1.30244 76.375 2.90909Z" fill="#F2F2F0"/>
<path d="M76.375 20.3636C76.375 21.9703 75.0598 23.2727 73.4375 23.2727C71.8152 23.2727 70.5 21.9703 70.5 20.3636C70.5 18.757 71.8152 17.4545 73.4375 17.4545C75.0598 17.4545 76.375 18.757 76.375 20.3636Z" fill="#F2F2F0"/>
<path d="M76.375 37.8182C76.375 39.4248 75.0598 40.7273 73.4375 40.7273C71.8152 40.7273 70.5 39.4248 70.5 37.8182C70.5 36.2115 71.8152 34.9091 73.4375 34.9091C75.0598 34.9091 76.375 36.2115 76.375 37.8182Z" fill="#F2F2F0"/>
<path d="M76.375 55.2727C76.375 56.8794 75.0598 58.1818 73.4375 58.1818C71.8152 58.1818 70.5 56.8794 70.5 55.2727C70.5 53.6661 71.8152 52.3636 73.4375 52.3636C75.0598 52.3636 76.375 53.6661 76.375 55.2727Z" fill="#F2F2F0"/>
<path d="M76.375 72.7273C76.375 74.3339 75.0598 75.6364 73.4375 75.6364C71.8152 75.6364 70.5 74.3339 70.5 72.7273C70.5 71.1206 71.8152 69.8182 73.4375 69.8182C75.0598 69.8182 76.375 71.1206 76.375 72.7273Z" fill="#F2F2F0"/>
<path d="M76.375 90.1818C76.375 91.7885 75.0598 93.0909 73.4375 93.0909C71.8152 93.0909 70.5 91.7885 70.5 90.1818C70.5 88.5752 71.8152 87.2727 73.4375 87.2727C75.0598 87.2727 76.375 88.5752 76.375 90.1818Z" fill="#F2F2F0"/>
<path d="M76.375 107.636C76.375 109.243 75.0598 110.545 73.4375 110.545C71.8152 110.545 70.5 109.243 70.5 107.636C70.5 106.03 71.8152 104.727 73.4375 104.727C75.0598 104.727 76.375 106.03 76.375 107.636Z" fill="#F2F2F0"/>
<path d="M76.375 125.091C76.375 126.698 75.0598 128 73.4375 128C71.8152 128 70.5 126.698 70.5 125.091C70.5 123.484 71.8152 122.182 73.4375 122.182C75.0598 122.182 76.375 123.484 76.375 125.091Z" fill="#F2F2F0"/>
</svg>
