<svg width="26" height="28" viewBox="0 0 26 28" fill="none" xmlns="http://www.w3.org/2000/svg">
<path fill-rule="evenodd" clip-rule="evenodd" d="M11.0511 0.615222C11.2064 0.242661 11.5705 0 11.9741 0C13.2309 0 14.4222 0.532871 15.2901 1.45815C16.156 2.38127 16.6322 3.62035 16.6322 4.89997V9.09994H22.5282C23.0347 9.09484 23.5341 9.20683 23.9915 9.42567C24.4505 9.64532 24.8539 9.96616 25.1765 10.3617C25.4989 10.757 25.7337 11.2182 25.8682 11.7121C26.0026 12.206 26.0346 12.7238 25.9624 13.2309L24.2797 24.9307C24.2797 24.9309 24.2798 24.9305 24.2797 24.9307C24.1598 25.7726 23.757 26.5534 23.1295 27.122C22.5018 27.6909 21.6914 28.0083 20.8455 27.9998H3.4387C2.50528 27.9998 1.62412 27.6039 0.98491 26.9224C0.347732 26.2431 0 25.3347 0 24.3999V15.2999C0 14.3651 0.347732 13.4566 0.98491 12.7773C1.62412 12.0958 2.50528 11.6999 3.4387 11.6999H6.4302L11.0511 0.615222ZM8.09674 12.9L12.6059 2.08333C13.0598 2.20473 13.4847 2.45679 13.8314 2.8264C14.3376 3.36606 14.6322 4.11092 14.6322 4.89998V10.0999C14.6322 10.6522 15.0799 11.0999 15.6322 11.0999H22.5337L22.5458 11.0999C22.744 11.0975 22.9425 11.1409 23.1282 11.2298C23.3142 11.3188 23.4853 11.4524 23.6266 11.6258C23.7682 11.7993 23.8758 12.0076 23.9384 12.2376C24.001 12.4675 24.0163 12.7105 23.9824 12.9485C23.9825 12.9484 23.9824 12.9487 23.9824 12.9485L22.2999 24.6475L22.2997 24.649C22.2431 25.0468 22.0551 25.3966 21.7865 25.64C21.5195 25.882 21.191 26.0039 20.863 25.9999L8.09674 25.9998V12.9ZM6.09674 25.9998V13.6999H3.4387C3.07855 13.6999 2.71912 13.8519 2.44365 14.1456C2.16613 14.4414 2 14.8556 2 15.2999V24.3999C2 24.8441 2.16613 25.2583 2.44365 25.5542C2.71912 25.8479 3.07855 25.9998 3.4387 25.9998H6.09674Z" fill="#2289FF"/>
</svg>
