<svg width="186" height="50" viewBox="0 0 186 50" fill="none" xmlns="http://www.w3.org/2000/svg">
<path d="M0 32.8273H186" stroke="#344860" stroke-width="2"/>
<mask id="path-2-inside-1_1007_1736" fill="white">
<path d="M0.388672 47.166V38.7348H6.51036V47.166H5.49389V39.6677H1.41657V47.166H0.388672ZM13.4593 40.7186C14.213 40.7186 14.8184 40.9902 15.2752 41.5334C15.7402 42.0766 15.9719 42.8953 15.9719 43.9896C15.9719 45.0681 15.7402 45.8867 15.2752 46.4457C14.8184 47.0047 14.2098 47.2841 13.4478 47.2841C12.9763 47.2841 12.5839 47.1936 12.2715 47.0125C11.9672 46.8236 11.7273 46.6071 11.5519 46.363H11.4834C11.4989 46.4969 11.5144 46.6661 11.5291 46.8708C11.5446 47.0755 11.5519 47.2526 11.5519 47.4022V50H10.5469V40.8367H11.3692L11.5062 41.6987H11.5519C11.7347 41.4232 11.9745 41.191 12.2715 41.002C12.5684 40.8131 12.9649 40.7186 13.4593 40.7186ZM13.2765 41.5925C12.6524 41.5925 12.2111 41.7735 11.9517 42.1356C11.7004 42.4977 11.5674 43.0489 11.5519 43.7888V43.9896C11.5519 44.7689 11.6743 45.3711 11.9174 45.7962C12.1687 46.2135 12.6296 46.4221 13.2994 46.4221C13.673 46.4221 13.9773 46.3158 14.213 46.1033C14.457 45.8907 14.6356 45.6033 14.7498 45.2412C14.8722 44.8712 14.9326 44.4501 14.9326 43.9778C14.9326 43.2535 14.7955 42.6749 14.5214 42.2419C14.2555 41.809 13.8402 41.5925 13.2765 41.5925ZM24.8371 43.9896C24.8371 45.0365 24.5785 45.8474 24.0604 46.4221C23.5506 46.9967 22.858 47.2841 21.9818 47.2841C21.4418 47.2841 20.958 47.1582 20.5313 46.9062C20.1128 46.6464 19.7816 46.2725 19.5377 45.7844C19.2946 45.2885 19.1722 44.6902 19.1722 43.9896C19.1722 42.9426 19.4276 42.1356 19.9374 41.5688C20.4481 41.002 21.1407 40.7186 22.0161 40.7186C22.5724 40.7186 23.0595 40.8485 23.478 41.1083C23.9046 41.3603 24.2358 41.7302 24.4716 42.2183C24.7155 42.6985 24.8371 43.2889 24.8371 43.9896ZM20.2115 43.9896C20.2115 44.7375 20.3527 45.3317 20.6341 45.7726C20.9237 46.2056 21.3806 46.4221 22.0046 46.4221C22.6214 46.4221 23.075 46.2056 23.3638 45.7726C23.6534 45.3317 23.7978 44.7375 23.7978 43.9896C23.7978 43.2417 23.6534 42.6552 23.3638 42.2301C23.075 41.805 22.6181 41.5925 21.9932 41.5925C21.3691 41.5925 20.9164 41.805 20.6341 42.2301C20.3527 42.6552 20.2115 43.2417 20.2115 43.9896ZM34.939 40.8367V47.166H34.0367V43.1275C34.0367 42.9622 34.0408 42.7891 34.0481 42.608C34.0636 42.4269 34.0783 42.2498 34.0938 42.0766H34.0596L32.0609 47.166H31.2157L29.2741 42.0766H29.2399C29.2627 42.4309 29.2741 42.793 29.2741 43.163V47.166H28.3719V40.8367H29.7081L31.6383 45.9261L33.6027 40.8367H34.939ZM38.8344 47.166V40.8367H39.8394V43.4346H41.427C42.2191 43.4346 42.8056 43.5841 43.1858 43.8833C43.5668 44.1825 43.7569 44.6312 43.7569 45.2294C43.7569 45.8199 43.5709 46.2922 43.1972 46.6464C42.8244 46.9928 42.2191 47.166 41.3813 47.166H38.8344ZM44.7733 47.166V40.8367H45.7784V47.166H44.7733ZM41.2899 46.3276C41.7239 46.3276 42.078 46.2528 42.3521 46.1033C42.6262 45.9458 42.7632 45.6742 42.7632 45.2885C42.7632 44.9028 42.6376 44.643 42.3863 44.5091C42.1351 44.3674 41.7737 44.2966 41.3013 44.2966H39.8394V46.3276H41.2899ZM57.9687 40.8367V47.166H49.6656V40.8367H50.6707V46.2922H53.3089V40.8367H54.314V46.2922H56.9637V40.8367H57.9687ZM66.528 47.166H65.5115V41.6987H63.707C63.6083 43.0291 63.4712 44.1037 63.2958 44.9224C63.1204 45.7332 62.8887 46.3236 62.5991 46.6937C62.3095 47.0637 61.9441 47.2487 61.5027 47.2487C61.404 47.2487 61.3045 47.2408 61.2058 47.2251C61.1144 47.2172 61.0385 47.1975 60.9774 47.166V46.3867C61.023 46.4024 61.0728 46.4142 61.1258 46.4221C61.1789 46.4299 61.2327 46.4339 61.2857 46.4339C61.6969 46.4339 62.024 45.9812 62.2679 45.0759C62.5192 44.1706 62.7093 42.7575 62.839 40.8367H66.528V47.166ZM72.7769 40.7186C73.3023 40.7186 73.751 40.8367 74.1246 41.0729C74.5048 41.3091 74.7944 41.6437 74.9926 42.0766C75.1982 42.5017 75.301 43.0016 75.301 43.5763V44.2021H71.1095C71.1241 44.9185 71.2995 45.4656 71.6348 45.8435C71.9775 46.2135 72.4531 46.3985 73.0625 46.3985C73.4508 46.3985 73.7934 46.363 74.0904 46.2922C74.3947 46.2135 74.7071 46.1033 75.0269 45.9616V46.8708C74.7144 47.0125 74.4061 47.1148 74.1018 47.1778C73.7967 47.2487 73.4353 47.2841 73.0168 47.2841C72.4376 47.2841 71.9236 47.162 71.4749 46.918C71.0328 46.674 70.6869 46.3118 70.4356 45.8317C70.1917 45.3436 70.0701 44.7493 70.0701 44.0486C70.0701 43.3559 70.1803 42.7615 70.4014 42.2655C70.6298 41.7696 70.9455 41.3878 71.3493 41.1201C71.7605 40.8525 72.2361 40.7186 72.7769 40.7186ZM72.7655 41.5688C72.2858 41.5688 71.9049 41.7302 71.6234 42.053C71.3493 42.3678 71.1853 42.8087 71.1323 43.3755H74.2503C74.2421 42.8402 74.1205 42.4072 73.8848 42.0766C73.6482 41.7381 73.2754 41.5688 72.7655 41.5688ZM79.8058 40.8367V43.47H83.1293V40.8367H84.1344V47.166H83.1293V44.3438H79.8058V47.166H78.8007V40.8367H79.8058ZM89.0193 40.8367V43.47H92.3428V40.8367H93.3479V47.166H92.3428V44.3438H89.0193V47.166H88.0143V40.8367H89.0193ZM97.2278 47.166V40.8367H98.2328V43.4346H99.8204C100.612 43.4346 101.199 43.5841 101.579 43.8833C101.96 44.1825 102.15 44.6312 102.15 45.2294C102.15 45.8199 101.964 46.2922 101.591 46.6464C101.218 46.9928 100.612 47.166 99.7747 47.166H97.2278ZM103.167 47.166V40.8367H104.172V47.166H103.167ZM99.6833 46.3276C100.117 46.3276 100.471 46.2528 100.745 46.1033C101.02 45.9458 101.157 45.6742 101.157 45.2885C101.157 44.9028 101.031 44.643 100.78 44.5091C100.528 44.3674 100.167 44.2966 99.6947 44.2966H98.2328V46.3276H99.6833ZM110.423 40.7186C110.949 40.7186 111.397 40.8367 111.771 41.0729C112.151 41.3091 112.441 41.6437 112.639 42.0766C112.844 42.5017 112.947 43.0016 112.947 43.5763V44.2021H108.756C108.77 44.9185 108.946 45.4656 109.281 45.8435C109.624 46.2135 110.099 46.3985 110.709 46.3985C111.097 46.3985 111.44 46.363 111.737 46.2922C112.041 46.2135 112.353 46.1033 112.673 45.9616V46.8708C112.361 47.0125 112.052 47.1148 111.748 47.1778C111.443 47.2487 111.082 47.2841 110.663 47.2841C110.084 47.2841 109.57 47.162 109.121 46.918C108.679 46.674 108.333 46.3118 108.082 45.8317C107.838 45.3436 107.716 44.7493 107.716 44.0486C107.716 43.3559 107.827 42.7615 108.048 42.2655C108.276 41.7696 108.592 41.3878 108.996 41.1201C109.407 40.8525 109.882 40.7186 110.423 40.7186ZM110.412 41.5688C109.932 41.5688 109.551 41.7302 109.27 42.053C108.996 42.3678 108.832 42.8087 108.779 43.3755H111.896C111.888 42.8402 111.767 42.4072 111.531 42.0766C111.294 41.7381 110.922 41.5688 110.412 41.5688ZM129.918 40.7423C130.527 40.7973 131.057 40.9627 131.506 41.2382C131.962 41.5138 132.317 41.8837 132.568 42.3482C132.819 42.8127 132.945 43.3637 132.945 44.0014C132.945 44.9539 132.675 45.7136 132.134 46.2804C131.601 46.8472 130.863 47.1739 129.918 47.2605V50H128.936V47.2605C128.335 47.2054 127.805 47.044 127.348 46.7763C126.892 46.5008 126.537 46.1308 126.286 45.6663C126.035 45.194 125.909 44.639 125.909 44.0014C125.909 43.0409 126.176 42.2773 126.709 41.7105C127.25 41.1437 128.003 40.821 128.97 40.7423V38.1917H129.918V40.7423ZM128.97 41.6043C128.27 41.6751 127.76 41.9152 127.44 42.3246C127.12 42.7261 126.96 43.285 126.96 44.0014C126.96 44.7177 127.12 45.2806 127.44 45.69C127.768 46.0993 128.278 46.3394 128.97 46.4103V41.6043ZM129.918 46.4103C130.603 46.3316 131.106 46.0875 131.426 45.6782C131.745 45.2688 131.905 44.7099 131.905 44.0014C131.905 43.2929 131.742 42.7379 131.414 42.3364C131.094 41.9349 130.596 41.6948 129.918 41.6161V46.4103ZM137.429 44.6981C137.429 44.7925 137.425 44.9342 137.418 45.1232C137.41 45.3121 137.399 45.501 137.383 45.69C137.376 45.8789 137.368 46.0284 137.361 46.1387L140.638 40.8367H141.872V47.166H140.935V43.4346C140.935 43.3086 140.935 43.1433 140.935 42.9386C140.943 42.7339 140.951 42.5332 140.958 42.3364C140.965 42.1317 140.974 41.9782 140.981 41.8759L137.726 47.166H136.481V40.8367H137.429V44.6981ZM150.421 47.166H149.405V41.6987H147.6C147.502 43.0291 147.365 44.1037 147.189 44.9224C147.014 45.7332 146.782 46.3236 146.492 46.6937C146.203 47.0637 145.837 47.2487 145.396 47.2487C145.297 47.2487 145.198 47.2408 145.099 47.2251C145.008 47.2172 144.932 47.1975 144.871 47.166V46.3867C144.916 46.4024 144.966 46.4142 145.019 46.4221C145.072 46.4299 145.126 46.4339 145.179 46.4339C145.59 46.4339 145.917 45.9812 146.161 45.0759C146.413 44.1706 146.603 42.7575 146.732 40.8367H150.421V47.166ZM157.127 43.4346C158.718 43.4346 159.514 44.0328 159.514 45.2294C159.514 45.8199 159.32 46.2922 158.932 46.6464C158.543 46.9928 157.927 47.166 157.081 47.166H154.306V40.8367H155.311V43.4346H157.127ZM158.509 45.2885C158.509 44.9028 158.375 44.643 158.109 44.5091C157.85 44.3674 157.484 44.2966 157.013 44.2966H155.311V46.3276H157.036C157.462 46.3276 157.812 46.2489 158.086 46.0914C158.368 45.934 158.509 45.6663 158.509 45.2885ZM166.686 41.7105H164.687V47.166H163.693V41.7105H161.718V40.8367H166.686V41.7105ZM172.745 40.7186C173.499 40.7186 174.105 40.9902 174.561 41.5334C175.026 42.0766 175.258 42.8953 175.258 43.9896C175.258 45.0681 175.026 45.8867 174.561 46.4457C174.105 47.0047 173.496 47.2841 172.734 47.2841C172.262 47.2841 171.87 47.1936 171.558 47.0125C171.253 46.8236 171.013 46.6071 170.838 46.363H170.77C170.785 46.4969 170.801 46.6661 170.815 46.8708C170.831 47.0755 170.838 47.2526 170.838 47.4022V50H169.833V40.8367H170.655L170.792 41.6987H170.838C171.021 41.4232 171.261 41.191 171.558 41.002C171.855 40.8131 172.251 40.7186 172.745 40.7186ZM172.563 41.5925C171.939 41.5925 171.497 41.7735 171.238 42.1356C170.987 42.4977 170.854 43.0489 170.838 43.7888V43.9896C170.838 44.7689 170.96 45.3711 171.204 45.7962C171.455 46.2135 171.916 46.4221 172.586 46.4221C172.959 46.4221 173.263 46.3158 173.499 46.1033C173.743 45.8907 173.922 45.6033 174.036 45.2412C174.158 44.8712 174.219 44.4501 174.219 43.9778C174.219 43.2535 174.082 42.6749 173.808 42.2419C173.542 41.809 173.126 41.5925 172.563 41.5925ZM178.802 47.166V40.8367H179.807V43.4346H181.394C182.186 43.4346 182.772 43.5841 183.153 43.8833C183.533 44.1825 183.724 44.6312 183.724 45.2294C183.724 45.8199 183.537 46.2922 183.165 46.6464C182.791 46.9928 182.186 47.166 181.349 47.166H178.802ZM184.741 47.166V40.8367H185.746V47.166H184.741ZM181.257 46.3276C181.691 46.3276 182.045 46.2528 182.32 46.1033C182.594 45.9458 182.731 45.6742 182.731 45.2885C182.731 44.9028 182.605 44.643 182.354 44.5091C182.103 44.3674 181.74 44.2966 181.269 44.2966H179.807V46.3276H181.257Z"/>
</mask>
<path d="M0.388672 47.166V38.7348H6.51036V47.166H5.49389V39.6677H1.41657V47.166H0.388672ZM13.4593 40.7186C14.213 40.7186 14.8184 40.9902 15.2752 41.5334C15.7402 42.0766 15.9719 42.8953 15.9719 43.9896C15.9719 45.0681 15.7402 45.8867 15.2752 46.4457C14.8184 47.0047 14.2098 47.2841 13.4478 47.2841C12.9763 47.2841 12.5839 47.1936 12.2715 47.0125C11.9672 46.8236 11.7273 46.6071 11.5519 46.363H11.4834C11.4989 46.4969 11.5144 46.6661 11.5291 46.8708C11.5446 47.0755 11.5519 47.2526 11.5519 47.4022V50H10.5469V40.8367H11.3692L11.5062 41.6987H11.5519C11.7347 41.4232 11.9745 41.191 12.2715 41.002C12.5684 40.8131 12.9649 40.7186 13.4593 40.7186ZM13.2765 41.5925C12.6524 41.5925 12.2111 41.7735 11.9517 42.1356C11.7004 42.4977 11.5674 43.0489 11.5519 43.7888V43.9896C11.5519 44.7689 11.6743 45.3711 11.9174 45.7962C12.1687 46.2135 12.6296 46.4221 13.2994 46.4221C13.673 46.4221 13.9773 46.3158 14.213 46.1033C14.457 45.8907 14.6356 45.6033 14.7498 45.2412C14.8722 44.8712 14.9326 44.4501 14.9326 43.9778C14.9326 43.2535 14.7955 42.6749 14.5214 42.2419C14.2555 41.809 13.8402 41.5925 13.2765 41.5925ZM24.8371 43.9896C24.8371 45.0365 24.5785 45.8474 24.0604 46.4221C23.5506 46.9967 22.858 47.2841 21.9818 47.2841C21.4418 47.2841 20.958 47.1582 20.5313 46.9062C20.1128 46.6464 19.7816 46.2725 19.5377 45.7844C19.2946 45.2885 19.1722 44.6902 19.1722 43.9896C19.1722 42.9426 19.4276 42.1356 19.9374 41.5688C20.4481 41.002 21.1407 40.7186 22.0161 40.7186C22.5724 40.7186 23.0595 40.8485 23.478 41.1083C23.9046 41.3603 24.2358 41.7302 24.4716 42.2183C24.7155 42.6985 24.8371 43.2889 24.8371 43.9896ZM20.2115 43.9896C20.2115 44.7375 20.3527 45.3317 20.6341 45.7726C20.9237 46.2056 21.3806 46.4221 22.0046 46.4221C22.6214 46.4221 23.075 46.2056 23.3638 45.7726C23.6534 45.3317 23.7978 44.7375 23.7978 43.9896C23.7978 43.2417 23.6534 42.6552 23.3638 42.2301C23.075 41.805 22.6181 41.5925 21.9932 41.5925C21.3691 41.5925 20.9164 41.805 20.6341 42.2301C20.3527 42.6552 20.2115 43.2417 20.2115 43.9896ZM34.939 40.8367V47.166H34.0367V43.1275C34.0367 42.9622 34.0408 42.7891 34.0481 42.608C34.0636 42.4269 34.0783 42.2498 34.0938 42.0766H34.0596L32.0609 47.166H31.2157L29.2741 42.0766H29.2399C29.2627 42.4309 29.2741 42.793 29.2741 43.163V47.166H28.3719V40.8367H29.7081L31.6383 45.9261L33.6027 40.8367H34.939ZM38.8344 47.166V40.8367H39.8394V43.4346H41.427C42.2191 43.4346 42.8056 43.5841 43.1858 43.8833C43.5668 44.1825 43.7569 44.6312 43.7569 45.2294C43.7569 45.8199 43.5709 46.2922 43.1972 46.6464C42.8244 46.9928 42.2191 47.166 41.3813 47.166H38.8344ZM44.7733 47.166V40.8367H45.7784V47.166H44.7733ZM41.2899 46.3276C41.7239 46.3276 42.078 46.2528 42.3521 46.1033C42.6262 45.9458 42.7632 45.6742 42.7632 45.2885C42.7632 44.9028 42.6376 44.643 42.3863 44.5091C42.1351 44.3674 41.7737 44.2966 41.3013 44.2966H39.8394V46.3276H41.2899ZM57.9687 40.8367V47.166H49.6656V40.8367H50.6707V46.2922H53.3089V40.8367H54.314V46.2922H56.9637V40.8367H57.9687ZM66.528 47.166H65.5115V41.6987H63.707C63.6083 43.0291 63.4712 44.1037 63.2958 44.9224C63.1204 45.7332 62.8887 46.3236 62.5991 46.6937C62.3095 47.0637 61.9441 47.2487 61.5027 47.2487C61.404 47.2487 61.3045 47.2408 61.2058 47.2251C61.1144 47.2172 61.0385 47.1975 60.9774 47.166V46.3867C61.023 46.4024 61.0728 46.4142 61.1258 46.4221C61.1789 46.4299 61.2327 46.4339 61.2857 46.4339C61.6969 46.4339 62.024 45.9812 62.2679 45.0759C62.5192 44.1706 62.7093 42.7575 62.839 40.8367H66.528V47.166ZM72.7769 40.7186C73.3023 40.7186 73.751 40.8367 74.1246 41.0729C74.5048 41.3091 74.7944 41.6437 74.9926 42.0766C75.1982 42.5017 75.301 43.0016 75.301 43.5763V44.2021H71.1095C71.1241 44.9185 71.2995 45.4656 71.6348 45.8435C71.9775 46.2135 72.4531 46.3985 73.0625 46.3985C73.4508 46.3985 73.7934 46.363 74.0904 46.2922C74.3947 46.2135 74.7071 46.1033 75.0269 45.9616V46.8708C74.7144 47.0125 74.4061 47.1148 74.1018 47.1778C73.7967 47.2487 73.4353 47.2841 73.0168 47.2841C72.4376 47.2841 71.9236 47.162 71.4749 46.918C71.0328 46.674 70.6869 46.3118 70.4356 45.8317C70.1917 45.3436 70.0701 44.7493 70.0701 44.0486C70.0701 43.3559 70.1803 42.7615 70.4014 42.2655C70.6298 41.7696 70.9455 41.3878 71.3493 41.1201C71.7605 40.8525 72.2361 40.7186 72.7769 40.7186ZM72.7655 41.5688C72.2858 41.5688 71.9049 41.7302 71.6234 42.053C71.3493 42.3678 71.1853 42.8087 71.1323 43.3755H74.2503C74.2421 42.8402 74.1205 42.4072 73.8848 42.0766C73.6482 41.7381 73.2754 41.5688 72.7655 41.5688ZM79.8058 40.8367V43.47H83.1293V40.8367H84.1344V47.166H83.1293V44.3438H79.8058V47.166H78.8007V40.8367H79.8058ZM89.0193 40.8367V43.47H92.3428V40.8367H93.3479V47.166H92.3428V44.3438H89.0193V47.166H88.0143V40.8367H89.0193ZM97.2278 47.166V40.8367H98.2328V43.4346H99.8204C100.612 43.4346 101.199 43.5841 101.579 43.8833C101.96 44.1825 102.15 44.6312 102.15 45.2294C102.15 45.8199 101.964 46.2922 101.591 46.6464C101.218 46.9928 100.612 47.166 99.7747 47.166H97.2278ZM103.167 47.166V40.8367H104.172V47.166H103.167ZM99.6833 46.3276C100.117 46.3276 100.471 46.2528 100.745 46.1033C101.02 45.9458 101.157 45.6742 101.157 45.2885C101.157 44.9028 101.031 44.643 100.78 44.5091C100.528 44.3674 100.167 44.2966 99.6947 44.2966H98.2328V46.3276H99.6833ZM110.423 40.7186C110.949 40.7186 111.397 40.8367 111.771 41.0729C112.151 41.3091 112.441 41.6437 112.639 42.0766C112.844 42.5017 112.947 43.0016 112.947 43.5763V44.2021H108.756C108.77 44.9185 108.946 45.4656 109.281 45.8435C109.624 46.2135 110.099 46.3985 110.709 46.3985C111.097 46.3985 111.44 46.363 111.737 46.2922C112.041 46.2135 112.353 46.1033 112.673 45.9616V46.8708C112.361 47.0125 112.052 47.1148 111.748 47.1778C111.443 47.2487 111.082 47.2841 110.663 47.2841C110.084 47.2841 109.57 47.162 109.121 46.918C108.679 46.674 108.333 46.3118 108.082 45.8317C107.838 45.3436 107.716 44.7493 107.716 44.0486C107.716 43.3559 107.827 42.7615 108.048 42.2655C108.276 41.7696 108.592 41.3878 108.996 41.1201C109.407 40.8525 109.882 40.7186 110.423 40.7186ZM110.412 41.5688C109.932 41.5688 109.551 41.7302 109.27 42.053C108.996 42.3678 108.832 42.8087 108.779 43.3755H111.896C111.888 42.8402 111.767 42.4072 111.531 42.0766C111.294 41.7381 110.922 41.5688 110.412 41.5688ZM129.918 40.7423C130.527 40.7973 131.057 40.9627 131.506 41.2382C131.962 41.5138 132.317 41.8837 132.568 42.3482C132.819 42.8127 132.945 43.3637 132.945 44.0014C132.945 44.9539 132.675 45.7136 132.134 46.2804C131.601 46.8472 130.863 47.1739 129.918 47.2605V50H128.936V47.2605C128.335 47.2054 127.805 47.044 127.348 46.7763C126.892 46.5008 126.537 46.1308 126.286 45.6663C126.035 45.194 125.909 44.639 125.909 44.0014C125.909 43.0409 126.176 42.2773 126.709 41.7105C127.25 41.1437 128.003 40.821 128.97 40.7423V38.1917H129.918V40.7423ZM128.97 41.6043C128.27 41.6751 127.76 41.9152 127.44 42.3246C127.12 42.7261 126.96 43.285 126.96 44.0014C126.96 44.7177 127.12 45.2806 127.44 45.69C127.768 46.0993 128.278 46.3394 128.97 46.4103V41.6043ZM129.918 46.4103C130.603 46.3316 131.106 46.0875 131.426 45.6782C131.745 45.2688 131.905 44.7099 131.905 44.0014C131.905 43.2929 131.742 42.7379 131.414 42.3364C131.094 41.9349 130.596 41.6948 129.918 41.6161V46.4103ZM137.429 44.6981C137.429 44.7925 137.425 44.9342 137.418 45.1232C137.41 45.3121 137.399 45.501 137.383 45.69C137.376 45.8789 137.368 46.0284 137.361 46.1387L140.638 40.8367H141.872V47.166H140.935V43.4346C140.935 43.3086 140.935 43.1433 140.935 42.9386C140.943 42.7339 140.951 42.5332 140.958 42.3364C140.965 42.1317 140.974 41.9782 140.981 41.8759L137.726 47.166H136.481V40.8367H137.429V44.6981ZM150.421 47.166H149.405V41.6987H147.6C147.502 43.0291 147.365 44.1037 147.189 44.9224C147.014 45.7332 146.782 46.3236 146.492 46.6937C146.203 47.0637 145.837 47.2487 145.396 47.2487C145.297 47.2487 145.198 47.2408 145.099 47.2251C145.008 47.2172 144.932 47.1975 144.871 47.166V46.3867C144.916 46.4024 144.966 46.4142 145.019 46.4221C145.072 46.4299 145.126 46.4339 145.179 46.4339C145.59 46.4339 145.917 45.9812 146.161 45.0759C146.413 44.1706 146.603 42.7575 146.732 40.8367H150.421V47.166ZM157.127 43.4346C158.718 43.4346 159.514 44.0328 159.514 45.2294C159.514 45.8199 159.32 46.2922 158.932 46.6464C158.543 46.9928 157.927 47.166 157.081 47.166H154.306V40.8367H155.311V43.4346H157.127ZM158.509 45.2885C158.509 44.9028 158.375 44.643 158.109 44.5091C157.85 44.3674 157.484 44.2966 157.013 44.2966H155.311V46.3276H157.036C157.462 46.3276 157.812 46.2489 158.086 46.0914C158.368 45.934 158.509 45.6663 158.509 45.2885ZM166.686 41.7105H164.687V47.166H163.693V41.7105H161.718V40.8367H166.686V41.7105ZM172.745 40.7186C173.499 40.7186 174.105 40.9902 174.561 41.5334C175.026 42.0766 175.258 42.8953 175.258 43.9896C175.258 45.0681 175.026 45.8867 174.561 46.4457C174.105 47.0047 173.496 47.2841 172.734 47.2841C172.262 47.2841 171.87 47.1936 171.558 47.0125C171.253 46.8236 171.013 46.6071 170.838 46.363H170.77C170.785 46.4969 170.801 46.6661 170.815 46.8708C170.831 47.0755 170.838 47.2526 170.838 47.4022V50H169.833V40.8367H170.655L170.792 41.6987H170.838C171.021 41.4232 171.261 41.191 171.558 41.002C171.855 40.8131 172.251 40.7186 172.745 40.7186ZM172.563 41.5925C171.939 41.5925 171.497 41.7735 171.238 42.1356C170.987 42.4977 170.854 43.0489 170.838 43.7888V43.9896C170.838 44.7689 170.96 45.3711 171.204 45.7962C171.455 46.2135 171.916 46.4221 172.586 46.4221C172.959 46.4221 173.263 46.3158 173.499 46.1033C173.743 45.8907 173.922 45.6033 174.036 45.2412C174.158 44.8712 174.219 44.4501 174.219 43.9778C174.219 43.2535 174.082 42.6749 173.808 42.2419C173.542 41.809 173.126 41.5925 172.563 41.5925ZM178.802 47.166V40.8367H179.807V43.4346H181.394C182.186 43.4346 182.772 43.5841 183.153 43.8833C183.533 44.1825 183.724 44.6312 183.724 45.2294C183.724 45.8199 183.537 46.2922 183.165 46.6464C182.791 46.9928 182.186 47.166 181.349 47.166H178.802ZM184.741 47.166V40.8367H185.746V47.166H184.741ZM181.257 46.3276C181.691 46.3276 182.045 46.2528 182.32 46.1033C182.594 45.9458 182.731 45.6742 182.731 45.2885C182.731 44.9028 182.605 44.643 182.354 44.5091C182.103 44.3674 181.74 44.2966 181.269 44.2966H179.807V46.3276H181.257Z" fill="#344860" stroke="#344860" stroke-width="2" mask="url(#path-2-inside-1_1007_1736)"/>
<path d="M110.44 21.5142H93.554V18.5677L109.94 18.5972H109.941C110.874 18.5972 111.668 18.3782 112.243 17.8617L112.244 17.8607C112.86 17.3035 113.113 16.4608 113.113 15.4555C113.113 14.4572 112.863 13.6197 112.244 13.0801C111.67 12.5436 110.875 12.3138 109.941 12.3138H99.4269C97.3355 12.3138 95.7756 11.7988 94.6806 10.8327C93.6206 9.86072 93.0547 8.41439 93.0547 6.40688C93.0547 4.39682 93.6219 2.9624 94.6803 2.01163L94.6807 2.01123C95.776 1.02493 97.3356 0.5 99.4269 0.5H115.432V3.44642L99.9271 3.417H99.9262C99.0099 3.417 98.2249 3.63715 97.6368 4.14144C97.0108 4.65696 96.7536 5.45655 96.7536 6.40688C96.7536 7.36187 97.0129 8.16515 97.6321 8.69863L97.632 8.69875L97.6418 8.70675C98.2301 9.18829 99.013 9.39676 99.9262 9.39676H110.44C112.53 9.39676 114.076 9.93081 115.15 10.9325L115.15 10.9326L115.157 10.9384C116.234 11.9084 116.812 13.3825 116.812 15.4555C116.812 17.5059 116.235 18.9835 115.153 19.9756L115.153 19.9756L115.15 19.9784C114.076 20.9801 112.53 21.5142 110.44 21.5142ZM122.726 9.2166H118.85V6.7247H122.726H123.226V6.2247V1.92713H126.484V6.2247V6.7247H126.984H132.769V9.2166H126.984H126.484V9.7166V16.5182C126.484 17.2066 126.648 17.8158 127.063 18.252C127.482 18.6929 128.075 18.8704 128.746 18.8704H133.591V21.3623H127.689C126.065 21.3623 124.972 20.948 124.299 20.2198C123.597 19.4388 123.226 18.403 123.226 17.0648V9.7166V9.2166H122.726ZM136.78 17.0648V6.7247H140.039V16.5486C140.039 17.2288 140.203 17.8316 140.62 18.2626C141.04 18.6967 141.632 18.8704 142.301 18.8704H150.171H150.671V18.3704V6.7247H154.077V23.8968C154.077 25.2367 153.705 26.2601 153.005 27.0193L153.005 27.0193L153.001 27.0236C152.328 27.7709 151.236 28.1943 149.613 28.1943H140.187V25.7024H148.556C149.227 25.7024 149.821 25.5249 150.24 25.084C150.655 24.6478 150.818 24.0386 150.818 23.3502V21.8623V21.3623H150.318H141.243C139.601 21.3623 138.501 20.9387 137.828 20.1939C137.142 19.4118 136.78 18.3839 136.78 17.0648ZM167.256 8.47713L167.259 8.47459C168.609 7.22754 170.519 6.57287 173.058 6.57287H180.4C182.045 6.57287 183.215 6.97851 183.992 7.71176L183.992 7.71186L184 7.71947C184.789 8.43125 185.215 9.47491 185.215 10.9312C185.215 12.4282 184.801 13.4636 184.053 14.1343C183.294 14.8144 182.107 15.1984 180.4 15.1984H169.298H168.677L168.81 15.8051C169.035 16.8355 169.503 17.6579 170.246 18.2161C170.984 18.7706 171.938 19.0223 173.058 19.0223H184.452V21.5142H173.058C170.518 21.5142 168.607 20.8691 167.258 19.6416C165.921 18.4067 165.217 16.5748 165.217 14.0587C165.217 11.5197 165.923 9.69021 167.256 8.47713ZM168.845 12.0776L168.677 12.7065H169.328H180.194C180.693 12.7065 181.142 12.548 181.471 12.1819C181.813 11.8242 181.957 11.3561 181.957 10.8401C181.957 10.3391 181.833 9.87134 181.497 9.53179C181.159 9.19133 180.693 9.06478 180.194 9.06478H173.058C171.979 9.06478 171.053 9.3004 170.324 9.81718C169.589 10.3376 169.104 11.1073 168.845 12.0776ZM158.319 21.3623V0.651822H161.578V21.3623H158.319Z" fill="#344860" stroke="#344860"/>
<path d="M0.361328 21.8624L9.81796 0.151855H17.072L26.5286 21.8624H21.4185L19.4214 17.2774H7.46848L5.47143 21.8624H0.361328ZM9.17186 13.33H17.7181L13.6359 3.9474H13.2541L9.17186 13.33ZM46.172 28.6944V6.22473H35.3057C32.6821 6.22473 30.6361 6.89275 29.1677 8.22878C27.6992 9.56481 26.965 11.498 26.965 14.0284C26.965 16.579 27.6992 18.5223 29.1677 19.8583C30.6361 21.1944 32.6821 21.8624 35.3057 21.8624H41.9136V28.6944H46.172ZM35.3057 9.71663H41.9136V18.3705H35.3057C34.033 18.3705 33.0541 18.0162 32.3688 17.3077C31.7031 16.579 31.3703 15.4859 31.3703 14.0284C31.3703 12.5911 31.7031 11.5183 32.3688 10.8097C33.0541 10.081 34.033 9.71663 35.3057 9.71663ZM54.223 21.8624C52.5001 21.8624 51.2372 21.417 50.4345 20.5264C49.6513 19.6357 49.2598 18.4818 49.2598 17.0648V6.22473H53.5182V16.5486C53.5182 17.7632 54.1055 18.3705 55.2803 18.3705H61.3889C62.5636 18.3705 63.151 17.7632 63.151 16.5486V6.22473H67.4094V17.0648C67.4094 18.4818 67.0081 19.6357 66.2053 20.5264C65.4222 21.417 64.1691 21.8624 62.4462 21.8624H54.223ZM74.5101 21.8624C72.9242 21.8624 71.7103 21.4474 70.8684 20.6174C70.0265 19.7875 69.6055 18.6033 69.6055 17.0648C69.6055 15.5466 70.0265 14.3725 70.8684 13.5425C71.7103 12.7126 72.9242 12.2976 74.5101 12.2976H85.7875V11.5689C85.7875 10.334 85.2002 9.71663 84.0254 9.71663H71.5732V6.22473H85.1414C86.9231 6.22473 88.186 6.64983 88.93 7.50003C89.674 8.32999 90.046 9.50408 90.046 11.0223V21.8624H74.5101ZM75.2736 18.3705H85.7875V15.7895H75.2736C74.9016 15.7895 74.608 15.911 74.3926 16.1539C74.1968 16.3766 74.0989 16.6802 74.0989 17.0648C74.0989 17.4494 74.1968 17.7632 74.3926 18.0061C74.608 18.249 74.9016 18.3705 75.2736 18.3705Z" fill="#2289FF"/>
</svg>
