<svg width="50" height="50" viewBox="0 0 50 50" fill="none" xmlns="http://www.w3.org/2000/svg">
<path d="M41.3681 25.9773C40.1303 27.5409 36.2106 29.0338 34.8534 29.3596C40.4086 36.5234 36.4795 50 25 50C37.1753 50 47.3177 41.2966 49.5451 29.7719C45.8767 30.2905 46.9363 27.7266 48.2899 25.9773C44.6417 27.5409 45.7926 25.543 46.8241 24.3487C39.5928 30.7982 40.1737 28.1217 41.3681 25.9773Z" fill="#5EC4FF"/>
<path d="M41.3681 25.9773C40.1303 27.5409 36.2106 29.0338 34.8534 29.3596C40.4086 36.5234 36.4795 50 25 50C37.1753 50 47.3177 41.2966 49.5451 29.7719C45.8767 30.2905 46.9363 27.7266 48.2899 25.9773C44.6417 27.5409 45.7926 25.543 46.8241 24.3487C39.5928 30.7982 40.1737 28.1217 41.3681 25.9773Z" fill="url(#paint0_linear_1007_1744)"/>
<path fill-rule="evenodd" clip-rule="evenodd" d="M35.4235 8.95791H32.899C32.9262 6.73208 31.3844 2.28042 25 2.28042C21.7657 2.28042 18.8925 2.85045 16.3681 4.80484C13.8436 6.75922 12.3778 10.5 12.785 14.6582C13.1122 18 13.8416 19.6203 16.2007 21.9057C17.5579 21.58 21.5635 20.2119 22.8013 18.6484C21.607 20.7928 21.0261 23.4692 28.2573 17.0197C27.2258 18.2141 26.0749 20.2119 29.7231 18.6484C27.9587 20.9285 26.6938 24.593 35.7492 21.01C35.4506 22.15 35.7329 23.3389 39.2508 18.9741C39.7666 19.4356 41.2704 19.8536 43.1596 17.8341C42.2096 19.5442 41.3029 22.378 45.2769 20.0328C44.7068 20.8199 45.2051 21.8569 49.5699 20.3585C47.4093 8.85067 37.3635 0.123554 25.257 0.00160287C28.726 0.0629449 35.2328 1.90494 35.4235 8.95791ZM37.2964 17.2544C37.2964 15.1313 34.202 11.1566 34.202 11.1566C34.202 11.1566 31.1075 15.1313 31.1075 17.2544C31.1075 18.9741 32.5347 20.2724 34.202 20.2724C35.8692 20.2724 37.2964 18.9741 37.2964 17.2544Z" fill="url(#paint1_linear_1007_1744)"/>
<path d="M22.8013 18.6484C21.5635 20.2119 17.5579 21.58 16.2007 21.9057C18.0311 23.6789 20.8034 25.0002 25 25.0002C29.5885 25.0002 32.8424 26.7662 34.8534 29.3596C36.2106 29.0338 40.1303 27.5409 41.3681 25.9773C40.1737 28.1217 39.5928 30.7982 46.8241 24.3487C45.7926 25.543 44.6417 27.5409 48.2899 25.9773C46.9363 27.7266 45.8767 30.2905 49.5451 29.7719C49.8436 28.2273 50 26.632 50 25.0002C50 23.4141 49.8523 21.8625 49.5699 20.3585C45.2051 21.8569 44.7068 20.8199 45.2769 20.0328C41.3029 22.378 42.2096 19.5442 43.1596 17.8341C41.2704 19.8536 39.7666 19.4356 39.2508 18.9741C35.7329 23.3389 35.4506 22.15 35.7492 21.01C26.6938 24.593 27.9587 20.9285 29.7231 18.6484C26.0749 20.2119 27.2258 18.2141 28.2573 17.0197C21.0261 23.4692 21.607 20.7928 22.8013 18.6484Z" fill="#5EC4FF"/>
<path d="M22.8013 18.6484C21.5635 20.2119 17.5579 21.58 16.2007 21.9057C18.0311 23.6789 20.8034 25.0002 25 25.0002C29.5885 25.0002 32.8424 26.7662 34.8534 29.3596C36.2106 29.0338 40.1303 27.5409 41.3681 25.9773C40.1737 28.1217 39.5928 30.7982 46.8241 24.3487C45.7926 25.543 44.6417 27.5409 48.2899 25.9773C46.9363 27.7266 45.8767 30.2905 49.5451 29.7719C49.8436 28.2273 50 26.632 50 25.0002C50 23.4141 49.8523 21.8625 49.5699 20.3585C45.2051 21.8569 44.7068 20.8199 45.2769 20.0328C41.3029 22.378 42.2096 19.5442 43.1596 17.8341C41.2704 19.8536 39.7666 19.4356 39.2508 18.9741C35.7329 23.3389 35.4506 22.15 35.7492 21.01C26.6938 24.593 27.9587 20.9285 29.7231 18.6484C26.0749 20.2119 27.2258 18.2141 28.2573 17.0197C21.0261 23.4692 21.607 20.7928 22.8013 18.6484Z" fill="url(#paint2_linear_1007_1744)"/>
<path d="M14.9837 24.3487C9.20195 19.9513 9.50054 9.63651 12.3778 6.10776C-1.54723 17.7526 2.52443 30.5376 5.78176 35.6678C6.34388 35.5903 6.87404 35.4811 7.37383 35.3438C3.51492 29.0344 2.74513 20.3469 9.42739 10.6571C4.5782 20.7775 5.718 28.9353 9.34751 34.5882C13.9218 32.2749 15.0948 27.215 14.9837 24.3487Z" fill="#5EC4FF"/>
<path d="M6.92182 37.8665C8.95765 42.101 19.1653 49.1271 27.6059 47.0684C37.6222 44.6254 37.6222 28.3389 25 27.5246C19.4403 26.9736 17.1824 25.8145 17.1824 25.8145C17.1824 25.8145 16.607 33.3636 10.813 36.5831C18.0532 45.247 31.4098 46.2505 32.899 36.8079C32.6164 49.7687 16.7472 47.5035 8.82902 37.4342C8.23601 37.6215 7.60124 37.7681 6.92182 37.8665Z" fill="#5EC4FF"/>
<path fill-rule="evenodd" clip-rule="evenodd" d="M0 25.0002C0 38.8072 11.1929 50 25 50C36.4795 50 40.4086 36.5234 34.8534 29.3596C32.8424 26.7662 29.5885 25.0002 25 25.0002C20.8034 25.0002 18.0311 23.6789 16.2007 21.9057C13.8416 19.6203 13.1122 18 12.785 14.6582C12.3778 10.5 13.8436 6.75922 16.3681 4.80484C18.8925 2.85045 21.7657 2.28042 25 2.28042C31.3844 2.28042 32.9262 6.73208 32.899 8.95791H35.4235C35.2328 1.90494 28.726 0.0629449 25.257 0.00160287C25.1715 0.000740785 25.0858 0.000308716 25 0.000308716C11.1929 0.000308716 0 11.1931 0 25.0002ZM12.3778 6.10776C9.50054 9.63651 9.20195 19.9513 14.9837 24.3487C15.0948 27.215 13.9218 32.2749 9.34751 34.5882C9.79962 35.2924 10.2904 35.9577 10.813 36.5831C16.607 33.3636 17.1824 25.8145 17.1824 25.8145C17.1824 25.8145 19.4403 26.9736 25 27.5246C37.6222 28.3389 37.6222 44.6254 27.6059 47.0684C19.1653 49.1271 8.95765 42.101 6.92182 37.8665C7.60124 37.7681 8.23601 37.6215 8.82902 37.4342C8.30718 36.7706 7.81987 36.0731 7.37383 35.3438C6.87404 35.4811 6.34388 35.5903 5.78176 35.6678C2.52443 30.5376 -1.54723 17.7526 12.3778 6.10776Z" fill="#2289FF"/>
<path d="M9.34751 34.5882C8.74935 34.8907 8.09304 35.1463 7.37383 35.3438C7.81987 36.0731 8.30718 36.7706 8.82902 37.4342C9.55036 37.2063 10.2099 36.9181 10.813 36.5831C10.2904 35.9577 9.79962 35.2924 9.34751 34.5882Z" fill="#2289FF"/>
<path fill-rule="evenodd" clip-rule="evenodd" d="M37.2964 17.2544C37.2964 15.1313 34.202 11.1566 34.202 11.1566C34.202 11.1566 31.1075 15.1313 31.1075 17.2544C31.1075 18.9741 32.5347 20.2724 34.202 20.2724C35.8692 20.2724 37.2964 18.9741 37.2964 17.2544ZM34.202 12.2596C32.591 14.4837 30.3632 18.9103 33.7182 19.5666C32.5886 19.2272 31.5805 17.4747 34.202 12.2596Z" fill="#5EC4FF"/>
<path d="M34.202 12.2596C32.591 14.4837 30.3632 18.9103 33.7182 19.5666C32.5886 19.2272 31.5805 17.4747 34.202 12.2596Z" fill="#C2E9FF"/>
<path d="M7.37383 35.3438C8.09304 35.1463 8.74935 34.8907 9.34751 34.5882C5.718 28.9353 4.5782 20.7775 9.42739 10.6571C2.74513 20.3469 3.51492 29.0344 7.37383 35.3438Z" fill="#C2E9FF"/>
<path d="M10.813 36.5831C10.2099 36.9181 9.55036 37.2063 8.82902 37.4342C16.7472 47.5035 32.6164 49.7687 32.899 36.8079C31.4098 46.2505 18.0532 45.247 10.813 36.5831Z" fill="#C2E9FF"/>
<defs>
<linearGradient id="paint0_linear_1007_1744" x1="31.988" y1="24.4301" x2="31.5477" y2="51.6254" gradientUnits="userSpaceOnUse">
<stop stop-color="#7CB1FF"/>
<stop offset="1" stop-color="#A6DEFF"/>
</linearGradient>
<linearGradient id="paint1_linear_1007_1744" x1="26.5663" y1="0.570337" x2="26.016" y2="24.9131" gradientUnits="userSpaceOnUse">
<stop stop-color="#B9E5FF"/>
<stop offset="0.338542" stop-color="#BFE8FF"/>
<stop offset="1" stop-color="white"/>
</linearGradient>
<linearGradient id="paint2_linear_1007_1744" x1="26.0241" y1="16.2869" x2="26.0241" y2="31.7591" gradientUnits="userSpaceOnUse">
<stop stop-color="#7CB1FF"/>
<stop offset="1" stop-color="#A6DEFF"/>
</linearGradient>
</defs>
</svg>
